<mxfile host="app.diagrams.net" modified="2020-03-18T02:56:27.583Z" agent="Mozilla/5.0 (Macintosh; Intel Mac OS X 10_14_6) AppleWebKit/537.36 (KHTML, like Gecko) Chrome/80.0.3987.132 Safari/537.36" etag="1WFgwJ6Fr_v8XS3_3oRP" version="12.8.4" type="github" pages="5">
  <diagram id="YSJLAyBFfjAHoGZt-fAr" name="Page-1">
    <mxGraphModel dx="779" dy="472" grid="1" gridSize="10" guides="1" tooltips="1" connect="1" arrows="1" fold="1" page="1" pageScale="1" pageWidth="827" pageHeight="1169" math="0" shadow="0">
      <root>
        <mxCell id="0" />
        <mxCell id="1" parent="0" />
        <mxCell id="sGa2mHhkgRF4kv3V-63x-1" value="用户" style="shape=umlActor;verticalLabelPosition=bottom;labelBackgroundColor=#ffffff;verticalAlign=top;html=1;align=center;" parent="1" vertex="1">
          <mxGeometry x="250" y="810" width="30" height="60" as="geometry" />
        </mxCell>
        <mxCell id="sGa2mHhkgRF4kv3V-63x-2" style="edgeStyle=none;rounded=0;orthogonalLoop=1;jettySize=auto;html=1;exitX=0;exitY=0.5;exitDx=0;exitDy=0;endArrow=none;endFill=0;startArrow=open;startFill=0;strokeWidth=1;jumpStyle=none;" parent="1" source="sGa2mHhkgRF4kv3V-63x-3" edge="1">
          <mxGeometry relative="1" as="geometry">
            <mxPoint x="280" y="830" as="targetPoint" />
          </mxGeometry>
        </mxCell>
        <mxCell id="sGa2mHhkgRF4kv3V-63x-3" value="校验关键词&lt;br&gt;合法性" style="ellipse;whiteSpace=wrap;html=1;align=center;strokeColor=#67AB9F;strokeWidth=2;" parent="1" vertex="1">
          <mxGeometry x="640" y="319" width="120" height="65" as="geometry" />
        </mxCell>
        <mxCell id="sGa2mHhkgRF4kv3V-63x-4" style="edgeStyle=none;rounded=0;orthogonalLoop=1;jettySize=auto;html=1;exitX=0;exitY=0.5;exitDx=0;exitDy=0;endArrow=none;endFill=0;startArrow=open;startFill=0;strokeWidth=1;jumpStyle=none;" parent="1" source="sGa2mHhkgRF4kv3V-63x-5" edge="1">
          <mxGeometry relative="1" as="geometry">
            <mxPoint x="280" y="830" as="targetPoint" />
          </mxGeometry>
        </mxCell>
        <mxCell id="sGa2mHhkgRF4kv3V-63x-5" value="设置关键词库&lt;br&gt;缓存策略" style="ellipse;whiteSpace=wrap;html=1;align=center;strokeColor=#67AB9F;strokeWidth=2;" parent="1" vertex="1">
          <mxGeometry x="640" y="540" width="120" height="65" as="geometry" />
        </mxCell>
        <mxCell id="sGa2mHhkgRF4kv3V-63x-6" style="edgeStyle=none;rounded=0;orthogonalLoop=1;jettySize=auto;html=1;exitX=0;exitY=0.5;exitDx=0;exitDy=0;endArrow=none;endFill=0;startArrow=open;startFill=0;strokeWidth=1;jumpStyle=none;comic=0;shadow=0;" parent="1" source="sGa2mHhkgRF4kv3V-63x-7" edge="1">
          <mxGeometry relative="1" as="geometry">
            <mxPoint x="280" y="830" as="targetPoint" />
          </mxGeometry>
        </mxCell>
        <mxCell id="sGa2mHhkgRF4kv3V-63x-7" value="设置缓存&lt;br&gt;有效期&lt;br&gt;" style="ellipse;whiteSpace=wrap;html=1;align=center;strokeColor=#67AB9F;strokeWidth=2;" parent="1" vertex="1">
          <mxGeometry x="640" y="610" width="120" height="65" as="geometry" />
        </mxCell>
        <mxCell id="sGa2mHhkgRF4kv3V-63x-8" style="edgeStyle=none;rounded=0;orthogonalLoop=1;jettySize=auto;html=1;exitX=0;exitY=0.5;exitDx=0;exitDy=0;endArrow=none;endFill=0;startArrow=open;startFill=0;strokeWidth=1;jumpStyle=none;" parent="1" source="sGa2mHhkgRF4kv3V-63x-9" edge="1">
          <mxGeometry relative="1" as="geometry">
            <mxPoint x="280" y="830" as="targetPoint" />
          </mxGeometry>
        </mxCell>
        <mxCell id="sGa2mHhkgRF4kv3V-63x-9" value="删除非法&lt;br&gt;关键词" style="ellipse;whiteSpace=wrap;html=1;align=center;strokeColor=#67AB9F;strokeWidth=2;" parent="1" vertex="1">
          <mxGeometry x="640" y="394" width="120" height="65" as="geometry" />
        </mxCell>
        <mxCell id="sGa2mHhkgRF4kv3V-63x-10" style="edgeStyle=none;rounded=0;orthogonalLoop=1;jettySize=auto;html=1;exitX=0;exitY=0.5;exitDx=0;exitDy=0;entryX=1;entryY=0.3333333333333333;entryDx=0;entryDy=0;entryPerimeter=0;endArrow=none;endFill=0;startArrow=open;startFill=0;strokeWidth=1;jumpStyle=none;" parent="1" source="sGa2mHhkgRF4kv3V-63x-11" target="sGa2mHhkgRF4kv3V-63x-1" edge="1">
          <mxGeometry relative="1" as="geometry" />
        </mxCell>
        <mxCell id="sGa2mHhkgRF4kv3V-63x-11" value="查看关键&lt;br&gt;词库信息" style="ellipse;whiteSpace=wrap;html=1;align=center;strokeColor=#67AB9F;strokeWidth=2;" parent="1" vertex="1">
          <mxGeometry x="640" y="169" width="120" height="65" as="geometry" />
        </mxCell>
        <mxCell id="sGa2mHhkgRF4kv3V-63x-12" style="edgeStyle=none;rounded=0;orthogonalLoop=1;jettySize=auto;html=1;exitX=0;exitY=0.5;exitDx=0;exitDy=0;endArrow=none;endFill=0;startArrow=open;startFill=0;strokeWidth=1;jumpStyle=none;" parent="1" source="sGa2mHhkgRF4kv3V-63x-13" edge="1">
          <mxGeometry relative="1" as="geometry">
            <mxPoint x="280" y="830" as="targetPoint" />
          </mxGeometry>
        </mxCell>
        <mxCell id="sGa2mHhkgRF4kv3V-63x-13" value="获取关键词库" style="ellipse;whiteSpace=wrap;html=1;align=center;strokeColor=#67AB9F;strokeWidth=2;" parent="1" vertex="1">
          <mxGeometry x="640" y="99" width="120" height="65" as="geometry" />
        </mxCell>
        <mxCell id="sGa2mHhkgRF4kv3V-63x-14" style="edgeStyle=none;rounded=0;orthogonalLoop=1;jettySize=auto;html=1;exitX=0;exitY=0.5;exitDx=0;exitDy=0;entryX=1;entryY=0.3333333333333333;entryDx=0;entryDy=0;entryPerimeter=0;endArrow=none;endFill=0;startArrow=open;startFill=0;strokeWidth=1;jumpStyle=none;" parent="1" source="sGa2mHhkgRF4kv3V-63x-15" target="sGa2mHhkgRF4kv3V-63x-1" edge="1">
          <mxGeometry relative="1" as="geometry" />
        </mxCell>
        <mxCell id="sGa2mHhkgRF4kv3V-63x-15" value="查看关键词&lt;br&gt;信息详情" style="ellipse;whiteSpace=wrap;html=1;align=center;strokeColor=#67AB9F;strokeWidth=2;" parent="1" vertex="1">
          <mxGeometry x="640" y="239" width="120" height="70" as="geometry" />
        </mxCell>
        <mxCell id="sGa2mHhkgRF4kv3V-63x-16" style="edgeStyle=none;rounded=0;orthogonalLoop=1;jettySize=auto;html=1;exitX=0;exitY=0.5;exitDx=0;exitDy=0;endArrow=none;endFill=0;startArrow=open;startFill=0;strokeWidth=1;jumpStyle=none;" parent="1" source="sGa2mHhkgRF4kv3V-63x-17" edge="1">
          <mxGeometry relative="1" as="geometry">
            <mxPoint x="280" y="830" as="targetPoint" />
          </mxGeometry>
        </mxCell>
        <mxCell id="sGa2mHhkgRF4kv3V-63x-17" value="设置&lt;br&gt;缓存大小" style="ellipse;whiteSpace=wrap;html=1;align=center;labelBorderColor=none;strokeColor=#67AB9F;strokeWidth=2;" parent="1" vertex="1">
          <mxGeometry x="640" y="680" width="120" height="65" as="geometry" />
        </mxCell>
        <mxCell id="sGa2mHhkgRF4kv3V-63x-18" style="edgeStyle=none;rounded=0;orthogonalLoop=1;jettySize=auto;html=1;exitX=0;exitY=0.5;exitDx=0;exitDy=0;endArrow=none;endFill=0;startArrow=open;startFill=0;strokeWidth=1;jumpStyle=none;" parent="1" source="sGa2mHhkgRF4kv3V-63x-19" edge="1">
          <mxGeometry relative="1" as="geometry">
            <mxPoint x="280" y="830" as="targetPoint" />
          </mxGeometry>
        </mxCell>
        <mxCell id="sGa2mHhkgRF4kv3V-63x-19" value="文本合法性&lt;br&gt;校验" style="ellipse;whiteSpace=wrap;html=1;align=center;strokeColor=#C3ABD0;strokeWidth=2;" parent="1" vertex="1">
          <mxGeometry x="640" y="772" width="120" height="65" as="geometry" />
        </mxCell>
        <mxCell id="sGa2mHhkgRF4kv3V-63x-20" style="edgeStyle=none;rounded=0;orthogonalLoop=1;jettySize=auto;html=1;exitX=0;exitY=0.5;exitDx=0;exitDy=0;endArrow=none;endFill=0;startArrow=open;startFill=0;strokeWidth=1;jumpStyle=none;" parent="1" source="sGa2mHhkgRF4kv3V-63x-21" edge="1">
          <mxGeometry relative="1" as="geometry">
            <mxPoint x="280" y="830" as="targetPoint" />
          </mxGeometry>
        </mxCell>
        <mxCell id="sGa2mHhkgRF4kv3V-63x-21" value="文本关键词&lt;br&gt;分析" style="ellipse;whiteSpace=wrap;html=1;align=center;strokeColor=#C3ABD0;strokeWidth=2;" parent="1" vertex="1">
          <mxGeometry x="640" y="842" width="120" height="65" as="geometry" />
        </mxCell>
        <mxCell id="sGa2mHhkgRF4kv3V-63x-22" style="edgeStyle=none;rounded=0;orthogonalLoop=1;jettySize=auto;html=1;exitX=0;exitY=0.5;exitDx=0;exitDy=0;endArrow=none;endFill=0;startArrow=open;startFill=0;strokeWidth=1;jumpStyle=none;" parent="1" source="sGa2mHhkgRF4kv3V-63x-23" edge="1">
          <mxGeometry relative="1" as="geometry">
            <mxPoint x="280" y="830" as="targetPoint" />
          </mxGeometry>
        </mxCell>
        <mxCell id="sGa2mHhkgRF4kv3V-63x-23" value="文本匹配信息&lt;br&gt;整理" style="ellipse;whiteSpace=wrap;html=1;align=center;strokeColor=#C3ABD0;strokeWidth=2;" parent="1" vertex="1">
          <mxGeometry x="640" y="912" width="120" height="65" as="geometry" />
        </mxCell>
        <mxCell id="sGa2mHhkgRF4kv3V-63x-24" style="edgeStyle=none;rounded=0;orthogonalLoop=1;jettySize=auto;html=1;exitX=0;exitY=0.5;exitDx=0;exitDy=0;endArrow=none;endFill=0;startArrow=open;startFill=0;strokeWidth=1;jumpStyle=none;" parent="1" source="sGa2mHhkgRF4kv3V-63x-25" edge="1">
          <mxGeometry relative="1" as="geometry">
            <mxPoint x="280" y="830" as="targetPoint" />
          </mxGeometry>
        </mxCell>
        <mxCell id="sGa2mHhkgRF4kv3V-63x-25" value="声量数据&lt;br&gt;合法性校验" style="ellipse;whiteSpace=wrap;html=1;align=center;strokeColor=#93AACC;strokeWidth=2;" parent="1" vertex="1">
          <mxGeometry x="640" y="1220" width="120" height="65" as="geometry" />
        </mxCell>
        <mxCell id="sGa2mHhkgRF4kv3V-63x-26" style="edgeStyle=none;rounded=0;orthogonalLoop=1;jettySize=auto;html=1;exitX=0;exitY=0.5;exitDx=0;exitDy=0;endArrow=none;endFill=0;startArrow=open;startFill=0;strokeWidth=1;jumpStyle=none;" parent="1" source="sGa2mHhkgRF4kv3V-63x-27" edge="1">
          <mxGeometry relative="1" as="geometry">
            <mxPoint x="280" y="830" as="targetPoint" />
          </mxGeometry>
        </mxCell>
        <mxCell id="sGa2mHhkgRF4kv3V-63x-27" value="声量数据存储" style="ellipse;whiteSpace=wrap;html=1;align=center;strokeColor=#93AACC;strokeWidth=2;" parent="1" vertex="1">
          <mxGeometry x="640" y="1370" width="120" height="65" as="geometry" />
        </mxCell>
        <mxCell id="sGa2mHhkgRF4kv3V-63x-28" style="edgeStyle=none;rounded=0;orthogonalLoop=1;jettySize=auto;html=1;exitX=0;exitY=0.5;exitDx=0;exitDy=0;endArrow=none;endFill=0;startArrow=open;startFill=0;strokeWidth=1;jumpStyle=none;" parent="1" source="sGa2mHhkgRF4kv3V-63x-29" edge="1">
          <mxGeometry relative="1" as="geometry">
            <mxPoint x="280" y="830" as="targetPoint" />
          </mxGeometry>
        </mxCell>
        <mxCell id="sGa2mHhkgRF4kv3V-63x-29" value="设置声量数据&lt;br&gt;缓存策略" style="ellipse;whiteSpace=wrap;html=1;align=center;strokeColor=#93AACC;strokeWidth=2;" parent="1" vertex="1">
          <mxGeometry x="640" y="1440" width="120" height="65" as="geometry" />
        </mxCell>
        <mxCell id="sGa2mHhkgRF4kv3V-63x-30" style="edgeStyle=none;rounded=0;orthogonalLoop=1;jettySize=auto;html=1;exitX=0;exitY=0.5;exitDx=0;exitDy=0;endArrow=none;endFill=0;startArrow=open;startFill=0;strokeWidth=1;jumpStyle=none;" parent="1" source="sGa2mHhkgRF4kv3V-63x-31" edge="1">
          <mxGeometry relative="1" as="geometry">
            <mxPoint x="280" y="830" as="targetPoint" />
          </mxGeometry>
        </mxCell>
        <mxCell id="sGa2mHhkgRF4kv3V-63x-31" value="删除非法&lt;br&gt;声量数据" style="ellipse;whiteSpace=wrap;html=1;align=center;strokeColor=#93AACC;strokeWidth=2;" parent="1" vertex="1">
          <mxGeometry x="640" y="1295" width="120" height="65" as="geometry" />
        </mxCell>
        <mxCell id="sGa2mHhkgRF4kv3V-63x-32" style="edgeStyle=none;rounded=0;orthogonalLoop=1;jettySize=auto;html=1;exitX=0;exitY=0.5;exitDx=0;exitDy=0;endArrow=none;endFill=0;startArrow=open;startFill=0;strokeWidth=1;jumpStyle=none;" parent="1" source="sGa2mHhkgRF4kv3V-63x-33" edge="1">
          <mxGeometry relative="1" as="geometry">
            <mxPoint x="280" y="830" as="targetPoint" />
          </mxGeometry>
        </mxCell>
        <mxCell id="sGa2mHhkgRF4kv3V-63x-33" value="查看声量&lt;br&gt;数据列表" style="ellipse;whiteSpace=wrap;html=1;align=center;strokeColor=#93AACC;strokeWidth=2;" parent="1" vertex="1">
          <mxGeometry x="640" y="1070" width="120" height="65" as="geometry" />
        </mxCell>
        <mxCell id="sGa2mHhkgRF4kv3V-63x-34" style="edgeStyle=none;rounded=0;orthogonalLoop=1;jettySize=auto;html=1;exitX=0;exitY=0.5;exitDx=0;exitDy=0;endArrow=none;endFill=0;startArrow=open;startFill=0;strokeWidth=1;jumpStyle=none;" parent="1" source="sGa2mHhkgRF4kv3V-63x-35" edge="1">
          <mxGeometry relative="1" as="geometry">
            <mxPoint x="280" y="830" as="targetPoint" />
          </mxGeometry>
        </mxCell>
        <mxCell id="sGa2mHhkgRF4kv3V-63x-35" value="查看声量&lt;br&gt;数据详情" style="ellipse;whiteSpace=wrap;html=1;align=center;strokeColor=#93AACC;strokeWidth=2;" parent="1" vertex="1">
          <mxGeometry x="640" y="1140" width="120" height="70" as="geometry" />
        </mxCell>
        <mxCell id="sGa2mHhkgRF4kv3V-63x-36" style="edgeStyle=none;rounded=0;orthogonalLoop=1;jettySize=auto;html=1;exitX=0;exitY=0.5;exitDx=0;exitDy=0;endArrow=none;endFill=0;startArrow=open;startFill=0;strokeWidth=1;jumpStyle=none;" parent="1" source="sGa2mHhkgRF4kv3V-63x-37" edge="1">
          <mxGeometry relative="1" as="geometry">
            <mxPoint x="280" y="827.3333740234375" as="targetPoint" />
          </mxGeometry>
        </mxCell>
        <mxCell id="sGa2mHhkgRF4kv3V-63x-37" value="设置声量数据&lt;br&gt;发送策略" style="ellipse;whiteSpace=wrap;html=1;align=center;strokeColor=#93AACC;strokeWidth=2;" parent="1" vertex="1">
          <mxGeometry x="640" y="1510" width="120" height="65" as="geometry" />
        </mxCell>
        <mxCell id="sGa2mHhkgRF4kv3V-63x-38" style="edgeStyle=none;rounded=0;jumpStyle=none;orthogonalLoop=1;jettySize=auto;html=1;exitX=0;exitY=0.5;exitDx=0;exitDy=0;startArrow=none;startFill=0;endArrow=open;endFill=0;strokeWidth=1;entryX=0;entryY=0.5;entryDx=0;entryDy=0;" parent="1" target="sGa2mHhkgRF4kv3V-63x-39" edge="1">
          <mxGeometry relative="1" as="geometry">
            <mxPoint x="280" y="830" as="sourcePoint" />
          </mxGeometry>
        </mxCell>
        <mxCell id="sGa2mHhkgRF4kv3V-63x-39" value="文本匹配信息&lt;br&gt;录入" style="ellipse;whiteSpace=wrap;html=1;align=center;strokeColor=#C3ABD0;strokeWidth=2;" parent="1" vertex="1">
          <mxGeometry x="640" y="986" width="120" height="65" as="geometry" />
        </mxCell>
        <mxCell id="sGa2mHhkgRF4kv3V-63x-40" style="edgeStyle=none;rounded=0;jumpStyle=none;orthogonalLoop=1;jettySize=auto;html=1;exitX=0;exitY=0.5;exitDx=0;exitDy=0;startArrow=none;startFill=0;endArrow=open;endFill=0;strokeWidth=1;entryX=0;entryY=0.5;entryDx=0;entryDy=0;" parent="1" target="sGa2mHhkgRF4kv3V-63x-41" edge="1">
          <mxGeometry relative="1" as="geometry">
            <mxPoint x="280" y="830" as="sourcePoint" />
          </mxGeometry>
        </mxCell>
        <mxCell id="sGa2mHhkgRF4kv3V-63x-41" value="设置关键词库&lt;br&gt;获取策略" style="ellipse;whiteSpace=wrap;html=1;align=center;strokeColor=#67AB9F;strokeWidth=2;" parent="1" vertex="1">
          <mxGeometry x="640" y="467" width="120" height="65" as="geometry" />
        </mxCell>
      </root>
    </mxGraphModel>
  </diagram>
  <diagram name="Page-2" id="dURVi55mBeu21Sh23cGC">
    <mxGraphModel dx="779" dy="472" grid="1" gridSize="10" guides="1" tooltips="1" connect="1" arrows="1" fold="1" page="1" pageScale="1" pageWidth="2339" pageHeight="3300" math="0" shadow="0">
      <root>
        <mxCell id="f6uy8CiDOMCb5-gXpElu-0" />
        <mxCell id="f6uy8CiDOMCb5-gXpElu-1" parent="f6uy8CiDOMCb5-gXpElu-0" />
        <mxCell id="7smrC5BkzZH1CydqaBpp-7" style="edgeStyle=none;rounded=0;orthogonalLoop=1;jettySize=auto;html=1;exitX=1;exitY=0.5;exitDx=0;exitDy=0;entryX=0;entryY=0.5;entryDx=0;entryDy=0;endArrow=none;endFill=0;arcSize=40;" parent="f6uy8CiDOMCb5-gXpElu-1" source="7smrC5BkzZH1CydqaBpp-0" target="7smrC5BkzZH1CydqaBpp-1" edge="1">
          <mxGeometry relative="1" as="geometry" />
        </mxCell>
        <mxCell id="7smrC5BkzZH1CydqaBpp-10" style="edgeStyle=orthogonalEdgeStyle;rounded=0;orthogonalLoop=1;jettySize=auto;html=1;exitX=0.5;exitY=1;exitDx=0;exitDy=0;endArrow=none;endFill=0;entryX=0;entryY=0.5;entryDx=0;entryDy=0;arcSize=40;" parent="f6uy8CiDOMCb5-gXpElu-1" source="7smrC5BkzZH1CydqaBpp-0" target="7smrC5BkzZH1CydqaBpp-6" edge="1">
          <mxGeometry relative="1" as="geometry">
            <mxPoint x="280" y="710" as="targetPoint" />
          </mxGeometry>
        </mxCell>
        <mxCell id="7smrC5BkzZH1CydqaBpp-0" value="用户" style="whiteSpace=wrap;html=1;align=center;" parent="f6uy8CiDOMCb5-gXpElu-1" vertex="1">
          <mxGeometry x="230" y="330" width="100" height="40" as="geometry" />
        </mxCell>
        <mxCell id="7smrC5BkzZH1CydqaBpp-8" style="edgeStyle=none;rounded=0;orthogonalLoop=1;jettySize=auto;html=1;exitX=1;exitY=0.5;exitDx=0;exitDy=0;entryX=0;entryY=0.5;entryDx=0;entryDy=0;endArrow=none;endFill=0;arcSize=40;" parent="f6uy8CiDOMCb5-gXpElu-1" source="7smrC5BkzZH1CydqaBpp-1" target="7smrC5BkzZH1CydqaBpp-2" edge="1">
          <mxGeometry relative="1" as="geometry" />
        </mxCell>
        <mxCell id="7smrC5BkzZH1CydqaBpp-1" value="使用" style="shape=rhombus;perimeter=rhombusPerimeter;whiteSpace=wrap;html=1;align=center;" parent="f6uy8CiDOMCb5-gXpElu-1" vertex="1">
          <mxGeometry x="440" y="320" width="120" height="60" as="geometry" />
        </mxCell>
        <mxCell id="7smrC5BkzZH1CydqaBpp-19" style="edgeStyle=none;rounded=0;orthogonalLoop=1;jettySize=auto;html=1;exitX=1;exitY=0.5;exitDx=0;exitDy=0;entryX=0;entryY=0.5;entryDx=0;entryDy=0;endArrow=none;endFill=0;arcSize=40;" parent="f6uy8CiDOMCb5-gXpElu-1" source="7smrC5BkzZH1CydqaBpp-2" target="7smrC5BkzZH1CydqaBpp-4" edge="1">
          <mxGeometry relative="1" as="geometry" />
        </mxCell>
        <mxCell id="7smrC5BkzZH1CydqaBpp-2" value="发帖" style="whiteSpace=wrap;html=1;align=center;" parent="f6uy8CiDOMCb5-gXpElu-1" vertex="1">
          <mxGeometry x="700" y="230" width="100" height="40" as="geometry" />
        </mxCell>
        <mxCell id="7smrC5BkzZH1CydqaBpp-9" style="edgeStyle=none;rounded=0;orthogonalLoop=1;jettySize=auto;html=1;exitX=0;exitY=0.5;exitDx=0;exitDy=0;entryX=1;entryY=0.5;entryDx=0;entryDy=0;endArrow=none;endFill=0;arcSize=40;" parent="f6uy8CiDOMCb5-gXpElu-1" source="7smrC5BkzZH1CydqaBpp-3" target="7smrC5BkzZH1CydqaBpp-1" edge="1">
          <mxGeometry relative="1" as="geometry" />
        </mxCell>
        <mxCell id="7smrC5BkzZH1CydqaBpp-20" style="edgeStyle=none;rounded=0;orthogonalLoop=1;jettySize=auto;html=1;exitX=1;exitY=0.5;exitDx=0;exitDy=0;endArrow=none;endFill=0;entryX=0;entryY=0.5;entryDx=0;entryDy=0;arcSize=40;" parent="f6uy8CiDOMCb5-gXpElu-1" source="7smrC5BkzZH1CydqaBpp-3" target="7smrC5BkzZH1CydqaBpp-4" edge="1">
          <mxGeometry relative="1" as="geometry">
            <mxPoint x="920" y="350" as="targetPoint" />
          </mxGeometry>
        </mxCell>
        <mxCell id="7smrC5BkzZH1CydqaBpp-3" value="回帖" style="whiteSpace=wrap;html=1;align=center;" parent="f6uy8CiDOMCb5-gXpElu-1" vertex="1">
          <mxGeometry x="700" y="430" width="100" height="40" as="geometry" />
        </mxCell>
        <mxCell id="7smrC5BkzZH1CydqaBpp-21" style="edgeStyle=orthogonalEdgeStyle;rounded=0;orthogonalLoop=1;jettySize=auto;html=1;exitX=0.5;exitY=1;exitDx=0;exitDy=0;endArrow=none;endFill=0;entryX=0.5;entryY=0;entryDx=0;entryDy=0;arcSize=40;" parent="f6uy8CiDOMCb5-gXpElu-1" source="7smrC5BkzZH1CydqaBpp-4" target="7smrC5BkzZH1CydqaBpp-5" edge="1">
          <mxGeometry relative="1" as="geometry">
            <mxPoint x="1070" y="550" as="targetPoint" />
          </mxGeometry>
        </mxCell>
        <mxCell id="7smrC5BkzZH1CydqaBpp-22" style="edgeStyle=orthogonalEdgeStyle;rounded=0;orthogonalLoop=1;jettySize=auto;html=1;exitX=1;exitY=0.5;exitDx=0;exitDy=0;entryX=0;entryY=0.5;entryDx=0;entryDy=0;endArrow=none;endFill=0;arcSize=40;" parent="f6uy8CiDOMCb5-gXpElu-1" source="7smrC5BkzZH1CydqaBpp-4" target="7smrC5BkzZH1CydqaBpp-12" edge="1">
          <mxGeometry relative="1" as="geometry" />
        </mxCell>
        <mxCell id="7smrC5BkzZH1CydqaBpp-4" value="分析" style="shape=rhombus;perimeter=rhombusPerimeter;whiteSpace=wrap;html=1;align=center;" parent="f6uy8CiDOMCb5-gXpElu-1" vertex="1">
          <mxGeometry x="930" y="320" width="120" height="60" as="geometry" />
        </mxCell>
        <mxCell id="7smrC5BkzZH1CydqaBpp-15" style="edgeStyle=orthogonalEdgeStyle;rounded=0;orthogonalLoop=1;jettySize=auto;html=1;exitX=0.5;exitY=1;exitDx=0;exitDy=0;entryX=0.5;entryY=0.167;entryDx=0;entryDy=0;entryPerimeter=0;endArrow=none;endFill=0;arcSize=40;" parent="f6uy8CiDOMCb5-gXpElu-1" source="7smrC5BkzZH1CydqaBpp-5" target="7smrC5BkzZH1CydqaBpp-13" edge="1">
          <mxGeometry relative="1" as="geometry" />
        </mxCell>
        <mxCell id="7smrC5BkzZH1CydqaBpp-5" value="关键词库" style="whiteSpace=wrap;html=1;align=center;" parent="f6uy8CiDOMCb5-gXpElu-1" vertex="1">
          <mxGeometry x="940" y="670" width="100" height="40" as="geometry" />
        </mxCell>
        <mxCell id="7smrC5BkzZH1CydqaBpp-11" style="edgeStyle=orthogonalEdgeStyle;rounded=0;orthogonalLoop=1;jettySize=auto;html=1;exitX=1;exitY=0.5;exitDx=0;exitDy=0;entryX=0;entryY=0.5;entryDx=0;entryDy=0;endArrow=none;endFill=0;arcSize=40;" parent="f6uy8CiDOMCb5-gXpElu-1" source="7smrC5BkzZH1CydqaBpp-6" target="7smrC5BkzZH1CydqaBpp-5" edge="1">
          <mxGeometry relative="1" as="geometry" />
        </mxCell>
        <mxCell id="7smrC5BkzZH1CydqaBpp-6" value="获取" style="shape=rhombus;perimeter=rhombusPerimeter;whiteSpace=wrap;html=1;align=center;" parent="f6uy8CiDOMCb5-gXpElu-1" vertex="1">
          <mxGeometry x="550" y="660" width="120" height="60" as="geometry" />
        </mxCell>
        <mxCell id="z-ovHuIr4uMnay9UF5sv-4" style="edgeStyle=orthogonalEdgeStyle;rounded=0;orthogonalLoop=1;jettySize=auto;html=1;exitX=1;exitY=0.5;exitDx=0;exitDy=0;entryX=0;entryY=0.5;entryDx=0;entryDy=0;endArrow=none;endFill=0;arcSize=40;" parent="f6uy8CiDOMCb5-gXpElu-1" source="7smrC5BkzZH1CydqaBpp-12" target="z-ovHuIr4uMnay9UF5sv-0" edge="1">
          <mxGeometry relative="1" as="geometry" />
        </mxCell>
        <mxCell id="7smrC5BkzZH1CydqaBpp-12" value="声量数据" style="whiteSpace=wrap;html=1;align=center;" parent="f6uy8CiDOMCb5-gXpElu-1" vertex="1">
          <mxGeometry x="1121" y="330" width="100" height="40" as="geometry" />
        </mxCell>
        <mxCell id="7smrC5BkzZH1CydqaBpp-13" value="设置" style="shape=rhombus;perimeter=rhombusPerimeter;whiteSpace=wrap;html=1;align=center;" parent="f6uy8CiDOMCb5-gXpElu-1" vertex="1">
          <mxGeometry x="930" y="830" width="120" height="60" as="geometry" />
        </mxCell>
        <mxCell id="7smrC5BkzZH1CydqaBpp-14" value="获取规则" style="whiteSpace=wrap;html=1;align=center;" parent="f6uy8CiDOMCb5-gXpElu-1" vertex="1">
          <mxGeometry x="830" y="990" width="100" height="40" as="geometry" />
        </mxCell>
        <mxCell id="7smrC5BkzZH1CydqaBpp-18" style="edgeStyle=none;rounded=0;orthogonalLoop=1;jettySize=auto;html=1;exitX=0.5;exitY=0;exitDx=0;exitDy=0;entryX=0.5;entryY=1;entryDx=0;entryDy=0;endArrow=none;endFill=0;arcSize=40;" parent="f6uy8CiDOMCb5-gXpElu-1" source="7smrC5BkzZH1CydqaBpp-17" target="7smrC5BkzZH1CydqaBpp-13" edge="1">
          <mxGeometry relative="1" as="geometry" />
        </mxCell>
        <mxCell id="7smrC5BkzZH1CydqaBpp-17" value="缓存规则" style="whiteSpace=wrap;html=1;align=center;" parent="f6uy8CiDOMCb5-gXpElu-1" vertex="1">
          <mxGeometry x="1040" y="990" width="100" height="40" as="geometry" />
        </mxCell>
        <mxCell id="z-ovHuIr4uMnay9UF5sv-5" style="edgeStyle=orthogonalEdgeStyle;rounded=0;orthogonalLoop=1;jettySize=auto;html=1;exitX=1;exitY=0.5;exitDx=0;exitDy=0;entryX=0;entryY=0.5;entryDx=0;entryDy=0;endArrow=none;endFill=0;arcSize=40;" parent="f6uy8CiDOMCb5-gXpElu-1" source="z-ovHuIr4uMnay9UF5sv-0" target="z-ovHuIr4uMnay9UF5sv-2" edge="1">
          <mxGeometry relative="1" as="geometry" />
        </mxCell>
        <mxCell id="z-ovHuIr4uMnay9UF5sv-0" value="设置" style="shape=rhombus;perimeter=rhombusPerimeter;whiteSpace=wrap;html=1;align=center;" parent="f6uy8CiDOMCb5-gXpElu-1" vertex="1">
          <mxGeometry x="1268" y="319.5" width="120" height="60" as="geometry" />
        </mxCell>
        <mxCell id="z-ovHuIr4uMnay9UF5sv-6" style="rounded=0;orthogonalLoop=1;jettySize=auto;html=1;exitX=0;exitY=0.5;exitDx=0;exitDy=0;endArrow=none;endFill=0;arcSize=40;" parent="f6uy8CiDOMCb5-gXpElu-1" source="z-ovHuIr4uMnay9UF5sv-1" edge="1">
          <mxGeometry relative="1" as="geometry">
            <mxPoint x="1388" y="349.5" as="targetPoint" />
          </mxGeometry>
        </mxCell>
        <mxCell id="z-ovHuIr4uMnay9UF5sv-1" value="缓存规则" style="whiteSpace=wrap;html=1;align=center;" parent="f6uy8CiDOMCb5-gXpElu-1" vertex="1">
          <mxGeometry x="1470" y="187.5" width="100" height="40" as="geometry" />
        </mxCell>
        <mxCell id="z-ovHuIr4uMnay9UF5sv-2" value="发送策略" style="whiteSpace=wrap;html=1;align=center;" parent="f6uy8CiDOMCb5-gXpElu-1" vertex="1">
          <mxGeometry x="1478" y="329.5" width="100" height="40" as="geometry" />
        </mxCell>
        <mxCell id="z-ovHuIr4uMnay9UF5sv-7" style="edgeStyle=none;rounded=0;orthogonalLoop=1;jettySize=auto;html=1;exitX=0;exitY=0.5;exitDx=0;exitDy=0;entryX=1;entryY=0.5;entryDx=0;entryDy=0;endArrow=none;endFill=0;arcSize=40;" parent="f6uy8CiDOMCb5-gXpElu-1" source="z-ovHuIr4uMnay9UF5sv-3" target="z-ovHuIr4uMnay9UF5sv-0" edge="1">
          <mxGeometry relative="1" as="geometry" />
        </mxCell>
        <mxCell id="z-ovHuIr4uMnay9UF5sv-3" value="Entity" style="whiteSpace=wrap;html=1;align=center;" parent="f6uy8CiDOMCb5-gXpElu-1" vertex="1">
          <mxGeometry x="1460" y="520" width="100" height="40" as="geometry" />
        </mxCell>
        <mxCell id="z-ovHuIr4uMnay9UF5sv-16" style="edgeStyle=none;rounded=0;orthogonalLoop=1;jettySize=auto;html=1;exitX=1;exitY=1;exitDx=0;exitDy=0;endArrow=none;endFill=0;arcSize=40;" parent="f6uy8CiDOMCb5-gXpElu-1" source="z-ovHuIr4uMnay9UF5sv-8" edge="1">
          <mxGeometry relative="1" as="geometry">
            <mxPoint x="230" y="350" as="targetPoint" />
          </mxGeometry>
        </mxCell>
        <mxCell id="z-ovHuIr4uMnay9UF5sv-8" value="AccountId" style="ellipse;whiteSpace=wrap;html=1;align=center;" parent="f6uy8CiDOMCb5-gXpElu-1" vertex="1">
          <mxGeometry x="70" y="230" width="100" height="40" as="geometry" />
        </mxCell>
        <mxCell id="z-ovHuIr4uMnay9UF5sv-17" style="edgeStyle=none;rounded=0;orthogonalLoop=1;jettySize=auto;html=1;exitX=1;exitY=0.5;exitDx=0;exitDy=0;endArrow=none;endFill=0;arcSize=40;" parent="f6uy8CiDOMCb5-gXpElu-1" source="z-ovHuIr4uMnay9UF5sv-9" edge="1">
          <mxGeometry relative="1" as="geometry">
            <mxPoint x="230" y="350" as="targetPoint" />
          </mxGeometry>
        </mxCell>
        <mxCell id="z-ovHuIr4uMnay9UF5sv-9" value="用户名" style="ellipse;whiteSpace=wrap;html=1;align=center;" parent="f6uy8CiDOMCb5-gXpElu-1" vertex="1">
          <mxGeometry x="30" y="280" width="100" height="40" as="geometry" />
        </mxCell>
        <mxCell id="z-ovHuIr4uMnay9UF5sv-18" style="edgeStyle=none;rounded=0;orthogonalLoop=1;jettySize=auto;html=1;exitX=1;exitY=0.5;exitDx=0;exitDy=0;endArrow=none;endFill=0;arcSize=40;" parent="f6uy8CiDOMCb5-gXpElu-1" source="z-ovHuIr4uMnay9UF5sv-10" edge="1">
          <mxGeometry relative="1" as="geometry">
            <mxPoint x="230" y="350" as="targetPoint" />
          </mxGeometry>
        </mxCell>
        <mxCell id="z-ovHuIr4uMnay9UF5sv-10" value="手机号" style="ellipse;whiteSpace=wrap;html=1;align=center;" parent="f6uy8CiDOMCb5-gXpElu-1" vertex="1">
          <mxGeometry x="30" y="330" width="100" height="40" as="geometry" />
        </mxCell>
        <mxCell id="z-ovHuIr4uMnay9UF5sv-19" style="edgeStyle=none;rounded=0;orthogonalLoop=1;jettySize=auto;html=1;exitX=1;exitY=0.5;exitDx=0;exitDy=0;endArrow=none;endFill=0;arcSize=40;" parent="f6uy8CiDOMCb5-gXpElu-1" source="z-ovHuIr4uMnay9UF5sv-11" edge="1">
          <mxGeometry relative="1" as="geometry">
            <mxPoint x="230" y="350" as="targetPoint" />
          </mxGeometry>
        </mxCell>
        <mxCell id="z-ovHuIr4uMnay9UF5sv-11" value="邮箱" style="ellipse;whiteSpace=wrap;html=1;align=center;" parent="f6uy8CiDOMCb5-gXpElu-1" vertex="1">
          <mxGeometry x="50" y="380" width="100" height="40" as="geometry" />
        </mxCell>
        <mxCell id="z-ovHuIr4uMnay9UF5sv-20" style="edgeStyle=none;rounded=0;orthogonalLoop=1;jettySize=auto;html=1;exitX=1;exitY=0;exitDx=0;exitDy=0;entryX=0;entryY=0.5;entryDx=0;entryDy=0;endArrow=none;endFill=0;arcSize=40;" parent="f6uy8CiDOMCb5-gXpElu-1" source="z-ovHuIr4uMnay9UF5sv-12" target="7smrC5BkzZH1CydqaBpp-0" edge="1">
          <mxGeometry relative="1" as="geometry" />
        </mxCell>
        <mxCell id="z-ovHuIr4uMnay9UF5sv-12" value="绑定信息" style="ellipse;whiteSpace=wrap;html=1;align=center;" parent="f6uy8CiDOMCb5-gXpElu-1" vertex="1">
          <mxGeometry x="80" y="430" width="100" height="40" as="geometry" />
        </mxCell>
        <mxCell id="z-ovHuIr4uMnay9UF5sv-26" style="edgeStyle=none;rounded=0;orthogonalLoop=1;jettySize=auto;html=1;exitX=0.5;exitY=1;exitDx=0;exitDy=0;entryX=0.5;entryY=0;entryDx=0;entryDy=0;endArrow=none;endFill=0;arcSize=40;" parent="f6uy8CiDOMCb5-gXpElu-1" source="z-ovHuIr4uMnay9UF5sv-21" target="7smrC5BkzZH1CydqaBpp-2" edge="1">
          <mxGeometry relative="1" as="geometry" />
        </mxCell>
        <mxCell id="z-ovHuIr4uMnay9UF5sv-21" value="标题" style="ellipse;whiteSpace=wrap;html=1;align=center;" parent="f6uy8CiDOMCb5-gXpElu-1" vertex="1">
          <mxGeometry x="700" y="70" width="100" height="40" as="geometry" />
        </mxCell>
        <mxCell id="z-ovHuIr4uMnay9UF5sv-29" style="edgeStyle=none;rounded=0;orthogonalLoop=1;jettySize=auto;html=1;exitX=0;exitY=1;exitDx=0;exitDy=0;endArrow=none;endFill=0;arcSize=40;" parent="f6uy8CiDOMCb5-gXpElu-1" source="z-ovHuIr4uMnay9UF5sv-22" edge="1">
          <mxGeometry relative="1" as="geometry">
            <mxPoint x="750" y="230" as="targetPoint" />
          </mxGeometry>
        </mxCell>
        <mxCell id="z-ovHuIr4uMnay9UF5sv-22" value="内容" style="ellipse;whiteSpace=wrap;html=1;align=center;" parent="f6uy8CiDOMCb5-gXpElu-1" vertex="1">
          <mxGeometry x="780" y="102.5" width="100" height="40" as="geometry" />
        </mxCell>
        <mxCell id="z-ovHuIr4uMnay9UF5sv-27" style="edgeStyle=none;rounded=0;orthogonalLoop=1;jettySize=auto;html=1;exitX=1;exitY=1;exitDx=0;exitDy=0;entryX=0.5;entryY=0;entryDx=0;entryDy=0;endArrow=none;endFill=0;arcSize=40;" parent="f6uy8CiDOMCb5-gXpElu-1" source="z-ovHuIr4uMnay9UF5sv-23" target="7smrC5BkzZH1CydqaBpp-2" edge="1">
          <mxGeometry relative="1" as="geometry" />
        </mxCell>
        <mxCell id="z-ovHuIr4uMnay9UF5sv-23" value="分类" style="ellipse;whiteSpace=wrap;html=1;align=center;" parent="f6uy8CiDOMCb5-gXpElu-1" vertex="1">
          <mxGeometry x="610" y="102.5" width="100" height="40" as="geometry" />
        </mxCell>
        <mxCell id="z-ovHuIr4uMnay9UF5sv-28" style="edgeStyle=none;rounded=0;orthogonalLoop=1;jettySize=auto;html=1;exitX=1;exitY=0.5;exitDx=0;exitDy=0;endArrow=none;endFill=0;arcSize=40;" parent="f6uy8CiDOMCb5-gXpElu-1" source="z-ovHuIr4uMnay9UF5sv-24" edge="1">
          <mxGeometry relative="1" as="geometry">
            <mxPoint x="750" y="230" as="targetPoint" />
          </mxGeometry>
        </mxCell>
        <mxCell id="z-ovHuIr4uMnay9UF5sv-24" value="作者" style="ellipse;whiteSpace=wrap;html=1;align=center;" parent="f6uy8CiDOMCb5-gXpElu-1" vertex="1">
          <mxGeometry x="580" y="145" width="100" height="40" as="geometry" />
        </mxCell>
        <mxCell id="z-ovHuIr4uMnay9UF5sv-30" style="edgeStyle=none;rounded=0;orthogonalLoop=1;jettySize=auto;html=1;exitX=0;exitY=1;exitDx=0;exitDy=0;entryX=0.5;entryY=0;entryDx=0;entryDy=0;endArrow=none;endFill=0;arcSize=40;" parent="f6uy8CiDOMCb5-gXpElu-1" source="z-ovHuIr4uMnay9UF5sv-25" target="7smrC5BkzZH1CydqaBpp-2" edge="1">
          <mxGeometry relative="1" as="geometry" />
        </mxCell>
        <mxCell id="z-ovHuIr4uMnay9UF5sv-25" value="发布时间" style="ellipse;whiteSpace=wrap;html=1;align=center;" parent="f6uy8CiDOMCb5-gXpElu-1" vertex="1">
          <mxGeometry x="810" y="145" width="100" height="40" as="geometry" />
        </mxCell>
        <mxCell id="z-ovHuIr4uMnay9UF5sv-34" style="edgeStyle=none;rounded=0;orthogonalLoop=1;jettySize=auto;html=1;exitX=1;exitY=0.5;exitDx=0;exitDy=0;entryX=0;entryY=0.5;entryDx=0;entryDy=0;endArrow=none;endFill=0;arcSize=40;" parent="f6uy8CiDOMCb5-gXpElu-1" source="z-ovHuIr4uMnay9UF5sv-31" target="7smrC5BkzZH1CydqaBpp-14" edge="1">
          <mxGeometry relative="1" as="geometry" />
        </mxCell>
        <mxCell id="z-ovHuIr4uMnay9UF5sv-31" value="启动获取" style="ellipse;whiteSpace=wrap;html=1;align=center;" parent="f6uy8CiDOMCb5-gXpElu-1" vertex="1">
          <mxGeometry x="645" y="938" width="100" height="40" as="geometry" />
        </mxCell>
        <mxCell id="z-ovHuIr4uMnay9UF5sv-35" style="edgeStyle=none;rounded=0;orthogonalLoop=1;jettySize=auto;html=1;exitX=1;exitY=0.5;exitDx=0;exitDy=0;endArrow=none;endFill=0;arcSize=40;" parent="f6uy8CiDOMCb5-gXpElu-1" source="z-ovHuIr4uMnay9UF5sv-32" edge="1">
          <mxGeometry relative="1" as="geometry">
            <mxPoint x="830" y="1010" as="targetPoint" />
          </mxGeometry>
        </mxCell>
        <mxCell id="z-ovHuIr4uMnay9UF5sv-32" value="定时获取" style="ellipse;whiteSpace=wrap;html=1;align=center;" parent="f6uy8CiDOMCb5-gXpElu-1" vertex="1">
          <mxGeometry x="645" y="990" width="100" height="40" as="geometry" />
        </mxCell>
        <mxCell id="z-ovHuIr4uMnay9UF5sv-36" style="edgeStyle=none;rounded=0;orthogonalLoop=1;jettySize=auto;html=1;exitX=1;exitY=0.5;exitDx=0;exitDy=0;endArrow=none;endFill=0;arcSize=40;" parent="f6uy8CiDOMCb5-gXpElu-1" source="z-ovHuIr4uMnay9UF5sv-33" edge="1">
          <mxGeometry relative="1" as="geometry">
            <mxPoint x="830" y="1010" as="targetPoint" />
          </mxGeometry>
        </mxCell>
        <mxCell id="z-ovHuIr4uMnay9UF5sv-33" value="实时获取" style="ellipse;whiteSpace=wrap;html=1;align=center;" parent="f6uy8CiDOMCb5-gXpElu-1" vertex="1">
          <mxGeometry x="645" y="1042" width="100" height="40" as="geometry" />
        </mxCell>
        <mxCell id="z-ovHuIr4uMnay9UF5sv-40" style="edgeStyle=none;rounded=0;orthogonalLoop=1;jettySize=auto;html=1;exitX=0;exitY=0.5;exitDx=0;exitDy=0;entryX=1;entryY=0.5;entryDx=0;entryDy=0;endArrow=none;endFill=0;arcSize=40;" parent="f6uy8CiDOMCb5-gXpElu-1" source="z-ovHuIr4uMnay9UF5sv-37" target="7smrC5BkzZH1CydqaBpp-17" edge="1">
          <mxGeometry relative="1" as="geometry" />
        </mxCell>
        <mxCell id="z-ovHuIr4uMnay9UF5sv-37" value="内存" style="ellipse;whiteSpace=wrap;html=1;align=center;" parent="f6uy8CiDOMCb5-gXpElu-1" vertex="1">
          <mxGeometry x="1233" y="928" width="100" height="40" as="geometry" />
        </mxCell>
        <mxCell id="z-ovHuIr4uMnay9UF5sv-41" style="edgeStyle=none;rounded=0;orthogonalLoop=1;jettySize=auto;html=1;exitX=0;exitY=0.5;exitDx=0;exitDy=0;endArrow=none;endFill=0;arcSize=40;" parent="f6uy8CiDOMCb5-gXpElu-1" source="z-ovHuIr4uMnay9UF5sv-38" edge="1">
          <mxGeometry relative="1" as="geometry">
            <mxPoint x="1140" y="1010" as="targetPoint" />
          </mxGeometry>
        </mxCell>
        <mxCell id="z-ovHuIr4uMnay9UF5sv-38" value="文件" style="ellipse;whiteSpace=wrap;html=1;align=center;" parent="f6uy8CiDOMCb5-gXpElu-1" vertex="1">
          <mxGeometry x="1233" y="990" width="100" height="40" as="geometry" />
        </mxCell>
        <mxCell id="z-ovHuIr4uMnay9UF5sv-42" style="edgeStyle=none;rounded=0;orthogonalLoop=1;jettySize=auto;html=1;exitX=0;exitY=0.5;exitDx=0;exitDy=0;endArrow=none;endFill=0;arcSize=40;" parent="f6uy8CiDOMCb5-gXpElu-1" source="z-ovHuIr4uMnay9UF5sv-39" edge="1">
          <mxGeometry relative="1" as="geometry">
            <mxPoint x="1140" y="1010" as="targetPoint" />
          </mxGeometry>
        </mxCell>
        <mxCell id="z-ovHuIr4uMnay9UF5sv-39" value="Attribute" style="ellipse;whiteSpace=wrap;html=1;align=center;" parent="f6uy8CiDOMCb5-gXpElu-1" vertex="1">
          <mxGeometry x="1233" y="1049" width="100" height="40" as="geometry" />
        </mxCell>
        <mxCell id="z-ovHuIr4uMnay9UF5sv-47" style="edgeStyle=none;rounded=0;orthogonalLoop=1;jettySize=auto;html=1;exitX=1;exitY=0;exitDx=0;exitDy=0;entryX=0.5;entryY=1;entryDx=0;entryDy=0;endArrow=none;endFill=0;arcSize=40;" parent="f6uy8CiDOMCb5-gXpElu-1" source="z-ovHuIr4uMnay9UF5sv-43" target="7smrC5BkzZH1CydqaBpp-3" edge="1">
          <mxGeometry relative="1" as="geometry" />
        </mxCell>
        <mxCell id="z-ovHuIr4uMnay9UF5sv-43" value="replyId" style="ellipse;whiteSpace=wrap;html=1;align=center;" parent="f6uy8CiDOMCb5-gXpElu-1" vertex="1">
          <mxGeometry x="590" y="490" width="100" height="40" as="geometry" />
        </mxCell>
        <mxCell id="z-ovHuIr4uMnay9UF5sv-48" style="edgeStyle=none;rounded=0;orthogonalLoop=1;jettySize=auto;html=1;exitX=0.5;exitY=0;exitDx=0;exitDy=0;endArrow=none;endFill=0;arcSize=40;" parent="f6uy8CiDOMCb5-gXpElu-1" source="z-ovHuIr4uMnay9UF5sv-44" edge="1">
          <mxGeometry relative="1" as="geometry">
            <mxPoint x="750" y="470" as="targetPoint" />
          </mxGeometry>
        </mxCell>
        <mxCell id="z-ovHuIr4uMnay9UF5sv-44" value="postId" style="ellipse;whiteSpace=wrap;html=1;align=center;" parent="f6uy8CiDOMCb5-gXpElu-1" vertex="1">
          <mxGeometry x="660" y="540" width="100" height="40" as="geometry" />
        </mxCell>
        <mxCell id="z-ovHuIr4uMnay9UF5sv-49" style="edgeStyle=none;rounded=0;orthogonalLoop=1;jettySize=auto;html=1;exitX=0.5;exitY=0;exitDx=0;exitDy=0;endArrow=none;endFill=0;arcSize=40;" parent="f6uy8CiDOMCb5-gXpElu-1" source="z-ovHuIr4uMnay9UF5sv-45" edge="1">
          <mxGeometry relative="1" as="geometry">
            <mxPoint x="750" y="470" as="targetPoint" />
          </mxGeometry>
        </mxCell>
        <mxCell id="z-ovHuIr4uMnay9UF5sv-45" value="content" style="ellipse;whiteSpace=wrap;html=1;align=center;" parent="f6uy8CiDOMCb5-gXpElu-1" vertex="1">
          <mxGeometry x="770" y="540" width="100" height="40" as="geometry" />
        </mxCell>
        <mxCell id="z-ovHuIr4uMnay9UF5sv-50" style="edgeStyle=none;rounded=0;orthogonalLoop=1;jettySize=auto;html=1;exitX=0;exitY=0;exitDx=0;exitDy=0;endArrow=none;endFill=0;arcSize=40;" parent="f6uy8CiDOMCb5-gXpElu-1" source="z-ovHuIr4uMnay9UF5sv-46" edge="1">
          <mxGeometry relative="1" as="geometry">
            <mxPoint x="750" y="470" as="targetPoint" />
          </mxGeometry>
        </mxCell>
        <mxCell id="z-ovHuIr4uMnay9UF5sv-46" value="userId" style="ellipse;whiteSpace=wrap;html=1;align=center;" parent="f6uy8CiDOMCb5-gXpElu-1" vertex="1">
          <mxGeometry x="810" y="490" width="100" height="40" as="geometry" />
        </mxCell>
        <mxCell id="z-ovHuIr4uMnay9UF5sv-60" style="edgeStyle=none;rounded=0;orthogonalLoop=1;jettySize=auto;html=1;exitX=0;exitY=0.5;exitDx=0;exitDy=0;entryX=1;entryY=0.5;entryDx=0;entryDy=0;endArrow=none;endFill=0;arcSize=40;" parent="f6uy8CiDOMCb5-gXpElu-1" source="z-ovHuIr4uMnay9UF5sv-51" target="z-ovHuIr4uMnay9UF5sv-1" edge="1">
          <mxGeometry relative="1" as="geometry" />
        </mxCell>
        <mxCell id="z-ovHuIr4uMnay9UF5sv-51" value="缓存时间" style="ellipse;whiteSpace=wrap;html=1;align=center;fontStyle=4;" parent="f6uy8CiDOMCb5-gXpElu-1" vertex="1">
          <mxGeometry x="1660" y="92.5" width="100" height="40" as="geometry" />
        </mxCell>
        <mxCell id="z-ovHuIr4uMnay9UF5sv-61" style="edgeStyle=none;rounded=0;orthogonalLoop=1;jettySize=auto;html=1;exitX=0;exitY=0.5;exitDx=0;exitDy=0;endArrow=none;endFill=0;arcSize=40;" parent="f6uy8CiDOMCb5-gXpElu-1" source="z-ovHuIr4uMnay9UF5sv-52" edge="1">
          <mxGeometry relative="1" as="geometry">
            <mxPoint x="1570" y="207.5" as="targetPoint" />
          </mxGeometry>
        </mxCell>
        <mxCell id="z-ovHuIr4uMnay9UF5sv-52" value="缓存大小" style="ellipse;whiteSpace=wrap;html=1;align=center;fontStyle=4;" parent="f6uy8CiDOMCb5-gXpElu-1" vertex="1">
          <mxGeometry x="1660" y="142.5" width="100" height="40" as="geometry" />
        </mxCell>
        <mxCell id="z-ovHuIr4uMnay9UF5sv-62" style="edgeStyle=none;rounded=0;orthogonalLoop=1;jettySize=auto;html=1;exitX=0;exitY=0.5;exitDx=0;exitDy=0;endArrow=none;endFill=0;arcSize=40;" parent="f6uy8CiDOMCb5-gXpElu-1" source="z-ovHuIr4uMnay9UF5sv-53" edge="1">
          <mxGeometry relative="1" as="geometry">
            <mxPoint x="1570" y="207.5" as="targetPoint" />
          </mxGeometry>
        </mxCell>
        <mxCell id="z-ovHuIr4uMnay9UF5sv-53" value="缓存路径" style="ellipse;whiteSpace=wrap;html=1;align=center;fontStyle=4;" parent="f6uy8CiDOMCb5-gXpElu-1" vertex="1">
          <mxGeometry x="1660" y="197.5" width="100" height="40" as="geometry" />
        </mxCell>
        <mxCell id="z-ovHuIr4uMnay9UF5sv-63" style="edgeStyle=none;rounded=0;orthogonalLoop=1;jettySize=auto;html=1;exitX=0;exitY=0.5;exitDx=0;exitDy=0;entryX=1;entryY=0.5;entryDx=0;entryDy=0;endArrow=none;endFill=0;arcSize=40;" parent="f6uy8CiDOMCb5-gXpElu-1" source="z-ovHuIr4uMnay9UF5sv-54" target="z-ovHuIr4uMnay9UF5sv-2" edge="1">
          <mxGeometry relative="1" as="geometry" />
        </mxCell>
        <mxCell id="z-ovHuIr4uMnay9UF5sv-54" value="启动时" style="ellipse;whiteSpace=wrap;html=1;align=center;" parent="f6uy8CiDOMCb5-gXpElu-1" vertex="1">
          <mxGeometry x="1660" y="270" width="100" height="40" as="geometry" />
        </mxCell>
        <mxCell id="z-ovHuIr4uMnay9UF5sv-64" style="edgeStyle=none;rounded=0;orthogonalLoop=1;jettySize=auto;html=1;exitX=0;exitY=0.5;exitDx=0;exitDy=0;endArrow=none;endFill=0;arcSize=40;" parent="f6uy8CiDOMCb5-gXpElu-1" source="z-ovHuIr4uMnay9UF5sv-55" edge="1">
          <mxGeometry relative="1" as="geometry">
            <mxPoint x="1578" y="349.5" as="targetPoint" />
          </mxGeometry>
        </mxCell>
        <mxCell id="z-ovHuIr4uMnay9UF5sv-55" value="定时" style="ellipse;whiteSpace=wrap;html=1;align=center;" parent="f6uy8CiDOMCb5-gXpElu-1" vertex="1">
          <mxGeometry x="1660" y="320" width="100" height="40" as="geometry" />
        </mxCell>
        <mxCell id="z-ovHuIr4uMnay9UF5sv-67" style="edgeStyle=none;rounded=0;orthogonalLoop=1;jettySize=auto;html=1;exitX=0;exitY=0.5;exitDx=0;exitDy=0;endArrow=none;endFill=0;arcSize=40;" parent="f6uy8CiDOMCb5-gXpElu-1" source="z-ovHuIr4uMnay9UF5sv-56" edge="1">
          <mxGeometry relative="1" as="geometry">
            <mxPoint x="1578" y="349.5" as="targetPoint" />
          </mxGeometry>
        </mxCell>
        <mxCell id="z-ovHuIr4uMnay9UF5sv-56" value="实时" style="ellipse;whiteSpace=wrap;html=1;align=center;" parent="f6uy8CiDOMCb5-gXpElu-1" vertex="1">
          <mxGeometry x="1660" y="370" width="100" height="40" as="geometry" />
        </mxCell>
        <mxCell id="z-ovHuIr4uMnay9UF5sv-68" style="edgeStyle=none;rounded=0;orthogonalLoop=1;jettySize=auto;html=1;exitX=0;exitY=0.5;exitDx=0;exitDy=0;entryX=1;entryY=0.5;entryDx=0;entryDy=0;endArrow=none;endFill=0;arcSize=40;" parent="f6uy8CiDOMCb5-gXpElu-1" source="z-ovHuIr4uMnay9UF5sv-57" target="z-ovHuIr4uMnay9UF5sv-3" edge="1">
          <mxGeometry relative="1" as="geometry" />
        </mxCell>
        <mxCell id="z-ovHuIr4uMnay9UF5sv-57" value="Attribute" style="ellipse;whiteSpace=wrap;html=1;align=center;" parent="f6uy8CiDOMCb5-gXpElu-1" vertex="1">
          <mxGeometry x="1650" y="490" width="100" height="40" as="geometry" />
        </mxCell>
        <mxCell id="z-ovHuIr4uMnay9UF5sv-69" style="edgeStyle=none;rounded=0;orthogonalLoop=1;jettySize=auto;html=1;exitX=0;exitY=0.5;exitDx=0;exitDy=0;endArrow=none;endFill=0;arcSize=40;" parent="f6uy8CiDOMCb5-gXpElu-1" source="z-ovHuIr4uMnay9UF5sv-58" edge="1">
          <mxGeometry relative="1" as="geometry">
            <mxPoint x="1560" y="540" as="targetPoint" />
          </mxGeometry>
        </mxCell>
        <mxCell id="z-ovHuIr4uMnay9UF5sv-58" value="Attribute" style="ellipse;whiteSpace=wrap;html=1;align=center;" parent="f6uy8CiDOMCb5-gXpElu-1" vertex="1">
          <mxGeometry x="1650" y="540" width="100" height="40" as="geometry" />
        </mxCell>
        <mxCell id="z-ovHuIr4uMnay9UF5sv-70" style="edgeStyle=none;rounded=0;orthogonalLoop=1;jettySize=auto;html=1;exitX=0;exitY=0.5;exitDx=0;exitDy=0;endArrow=none;endFill=0;arcSize=40;" parent="f6uy8CiDOMCb5-gXpElu-1" source="z-ovHuIr4uMnay9UF5sv-59" edge="1">
          <mxGeometry relative="1" as="geometry">
            <mxPoint x="1560" y="540" as="targetPoint" />
          </mxGeometry>
        </mxCell>
        <mxCell id="z-ovHuIr4uMnay9UF5sv-59" value="Attribute" style="ellipse;whiteSpace=wrap;html=1;align=center;" parent="f6uy8CiDOMCb5-gXpElu-1" vertex="1">
          <mxGeometry x="1650" y="590" width="100" height="40" as="geometry" />
        </mxCell>
        <mxCell id="z-ovHuIr4uMnay9UF5sv-72" style="edgeStyle=none;rounded=0;orthogonalLoop=1;jettySize=auto;html=1;exitX=0;exitY=0.5;exitDx=0;exitDy=0;endArrow=none;endFill=0;arcSize=40;" parent="f6uy8CiDOMCb5-gXpElu-1" source="z-ovHuIr4uMnay9UF5sv-71" edge="1">
          <mxGeometry relative="1" as="geometry">
            <mxPoint x="1580" y="350" as="targetPoint" />
          </mxGeometry>
        </mxCell>
        <mxCell id="z-ovHuIr4uMnay9UF5sv-71" value="切换到后台时" style="ellipse;whiteSpace=wrap;html=1;align=center;" parent="f6uy8CiDOMCb5-gXpElu-1" vertex="1">
          <mxGeometry x="1660" y="420" width="100" height="40" as="geometry" />
        </mxCell>
        <mxCell id="z-ovHuIr4uMnay9UF5sv-78" style="edgeStyle=none;rounded=0;orthogonalLoop=1;jettySize=auto;html=1;exitX=0;exitY=1;exitDx=0;exitDy=0;entryX=1;entryY=0.5;entryDx=0;entryDy=0;endArrow=none;endFill=0;arcSize=40;" parent="f6uy8CiDOMCb5-gXpElu-1" source="z-ovHuIr4uMnay9UF5sv-73" target="7smrC5BkzZH1CydqaBpp-5" edge="1">
          <mxGeometry relative="1" as="geometry" />
        </mxCell>
        <mxCell id="z-ovHuIr4uMnay9UF5sv-73" value="id" style="ellipse;whiteSpace=wrap;html=1;align=center;" parent="f6uy8CiDOMCb5-gXpElu-1" vertex="1">
          <mxGeometry x="1090" y="570" width="100" height="40" as="geometry" />
        </mxCell>
        <mxCell id="z-ovHuIr4uMnay9UF5sv-79" style="edgeStyle=none;rounded=0;orthogonalLoop=1;jettySize=auto;html=1;exitX=0;exitY=0.5;exitDx=0;exitDy=0;endArrow=none;endFill=0;arcSize=40;" parent="f6uy8CiDOMCb5-gXpElu-1" source="z-ovHuIr4uMnay9UF5sv-74" edge="1">
          <mxGeometry relative="1" as="geometry">
            <mxPoint x="1040" y="690" as="targetPoint" />
          </mxGeometry>
        </mxCell>
        <mxCell id="z-ovHuIr4uMnay9UF5sv-74" value="名称" style="ellipse;whiteSpace=wrap;html=1;align=center;" parent="f6uy8CiDOMCb5-gXpElu-1" vertex="1">
          <mxGeometry x="1133" y="620" width="100" height="40" as="geometry" />
        </mxCell>
        <mxCell id="z-ovHuIr4uMnay9UF5sv-80" style="edgeStyle=none;rounded=0;orthogonalLoop=1;jettySize=auto;html=1;exitX=0;exitY=0.5;exitDx=0;exitDy=0;endArrow=none;endFill=0;arcSize=40;" parent="f6uy8CiDOMCb5-gXpElu-1" source="z-ovHuIr4uMnay9UF5sv-75" edge="1">
          <mxGeometry relative="1" as="geometry">
            <mxPoint x="1040" y="690" as="targetPoint" />
          </mxGeometry>
        </mxCell>
        <mxCell id="z-ovHuIr4uMnay9UF5sv-75" value="分类" style="ellipse;whiteSpace=wrap;html=1;align=center;" parent="f6uy8CiDOMCb5-gXpElu-1" vertex="1">
          <mxGeometry x="1143" y="670" width="100" height="40" as="geometry" />
        </mxCell>
        <mxCell id="z-ovHuIr4uMnay9UF5sv-81" style="edgeStyle=none;rounded=0;orthogonalLoop=1;jettySize=auto;html=1;exitX=0;exitY=0.5;exitDx=0;exitDy=0;endArrow=none;endFill=0;arcSize=40;" parent="f6uy8CiDOMCb5-gXpElu-1" source="z-ovHuIr4uMnay9UF5sv-76" edge="1">
          <mxGeometry relative="1" as="geometry">
            <mxPoint x="1040" y="690" as="targetPoint" />
          </mxGeometry>
        </mxCell>
        <mxCell id="z-ovHuIr4uMnay9UF5sv-76" value="创建时间" style="ellipse;whiteSpace=wrap;html=1;align=center;" parent="f6uy8CiDOMCb5-gXpElu-1" vertex="1">
          <mxGeometry x="1131" y="720" width="100" height="40" as="geometry" />
        </mxCell>
        <mxCell id="z-ovHuIr4uMnay9UF5sv-82" style="edgeStyle=none;rounded=0;orthogonalLoop=1;jettySize=auto;html=1;exitX=0;exitY=0.5;exitDx=0;exitDy=0;endArrow=none;endFill=0;arcSize=40;" parent="f6uy8CiDOMCb5-gXpElu-1" source="z-ovHuIr4uMnay9UF5sv-77" edge="1">
          <mxGeometry relative="1" as="geometry">
            <mxPoint x="1040" y="690" as="targetPoint" />
          </mxGeometry>
        </mxCell>
        <mxCell id="z-ovHuIr4uMnay9UF5sv-77" value="过期时间" style="ellipse;whiteSpace=wrap;html=1;align=center;fontStyle=4;" parent="f6uy8CiDOMCb5-gXpElu-1" vertex="1">
          <mxGeometry x="1080" y="770" width="100" height="40" as="geometry" />
        </mxCell>
        <mxCell id="z-ovHuIr4uMnay9UF5sv-88" style="edgeStyle=none;rounded=0;orthogonalLoop=1;jettySize=auto;html=1;exitX=0.5;exitY=1;exitDx=0;exitDy=0;entryX=0.5;entryY=0;entryDx=0;entryDy=0;endArrow=none;endFill=0;arcSize=40;" parent="f6uy8CiDOMCb5-gXpElu-1" source="z-ovHuIr4uMnay9UF5sv-83" target="7smrC5BkzZH1CydqaBpp-12" edge="1">
          <mxGeometry relative="1" as="geometry" />
        </mxCell>
        <mxCell id="z-ovHuIr4uMnay9UF5sv-83" value="Attribute" style="ellipse;whiteSpace=wrap;html=1;align=center;" parent="f6uy8CiDOMCb5-gXpElu-1" vertex="1">
          <mxGeometry x="1140" y="158" width="100" height="40" as="geometry" />
        </mxCell>
        <mxCell id="z-ovHuIr4uMnay9UF5sv-89" style="edgeStyle=none;rounded=0;orthogonalLoop=1;jettySize=auto;html=1;exitX=1;exitY=1;exitDx=0;exitDy=0;endArrow=none;endFill=0;arcSize=40;" parent="f6uy8CiDOMCb5-gXpElu-1" source="z-ovHuIr4uMnay9UF5sv-84" edge="1">
          <mxGeometry relative="1" as="geometry">
            <mxPoint x="1170" y="330" as="targetPoint" />
          </mxGeometry>
        </mxCell>
        <mxCell id="z-ovHuIr4uMnay9UF5sv-84" value="Attribute" style="ellipse;whiteSpace=wrap;html=1;align=center;" parent="f6uy8CiDOMCb5-gXpElu-1" vertex="1">
          <mxGeometry x="1050" y="189.5" width="100" height="40" as="geometry" />
        </mxCell>
        <mxCell id="z-ovHuIr4uMnay9UF5sv-90" style="edgeStyle=none;rounded=0;orthogonalLoop=1;jettySize=auto;html=1;exitX=0;exitY=1;exitDx=0;exitDy=0;entryX=0.5;entryY=0;entryDx=0;entryDy=0;endArrow=none;endFill=0;arcSize=40;" parent="f6uy8CiDOMCb5-gXpElu-1" source="z-ovHuIr4uMnay9UF5sv-85" target="7smrC5BkzZH1CydqaBpp-12" edge="1">
          <mxGeometry relative="1" as="geometry" />
        </mxCell>
        <mxCell id="z-ovHuIr4uMnay9UF5sv-85" value="Attribute" style="ellipse;whiteSpace=wrap;html=1;align=center;" parent="f6uy8CiDOMCb5-gXpElu-1" vertex="1">
          <mxGeometry x="1221" y="190" width="100" height="40" as="geometry" />
        </mxCell>
        <mxCell id="z-ovHuIr4uMnay9UF5sv-91" style="edgeStyle=none;rounded=0;orthogonalLoop=1;jettySize=auto;html=1;exitX=1;exitY=1;exitDx=0;exitDy=0;endArrow=none;endFill=0;arcSize=40;" parent="f6uy8CiDOMCb5-gXpElu-1" source="z-ovHuIr4uMnay9UF5sv-86" edge="1">
          <mxGeometry relative="1" as="geometry">
            <mxPoint x="1170" y="330" as="targetPoint" />
          </mxGeometry>
        </mxCell>
        <mxCell id="z-ovHuIr4uMnay9UF5sv-86" value="Attribute" style="ellipse;whiteSpace=wrap;html=1;align=center;" parent="f6uy8CiDOMCb5-gXpElu-1" vertex="1">
          <mxGeometry x="1021" y="240" width="100" height="40" as="geometry" />
        </mxCell>
        <mxCell id="z-ovHuIr4uMnay9UF5sv-92" style="edgeStyle=none;rounded=0;orthogonalLoop=1;jettySize=auto;html=1;exitX=0;exitY=1;exitDx=0;exitDy=0;endArrow=none;endFill=0;arcSize=40;" parent="f6uy8CiDOMCb5-gXpElu-1" source="z-ovHuIr4uMnay9UF5sv-87" edge="1">
          <mxGeometry relative="1" as="geometry">
            <mxPoint x="1170" y="330" as="targetPoint" />
          </mxGeometry>
        </mxCell>
        <mxCell id="z-ovHuIr4uMnay9UF5sv-87" value="Attribute" style="ellipse;whiteSpace=wrap;html=1;align=center;" parent="f6uy8CiDOMCb5-gXpElu-1" vertex="1">
          <mxGeometry x="1243" y="240" width="100" height="40" as="geometry" />
        </mxCell>
        <mxCell id="7smrC5BkzZH1CydqaBpp-16" style="rounded=0;orthogonalLoop=1;jettySize=auto;html=1;exitX=0.5;exitY=1;exitDx=0;exitDy=0;entryX=0.5;entryY=0;entryDx=0;entryDy=0;endArrow=none;endFill=0;arcSize=40;strokeColor=#000000;fillColor=#FFFFFF;labelBorderColor=none;shadow=0;horizontal=1;startSize=12;endSize=12;" parent="f6uy8CiDOMCb5-gXpElu-1" source="7smrC5BkzZH1CydqaBpp-13" target="7smrC5BkzZH1CydqaBpp-14" edge="1">
          <mxGeometry relative="1" as="geometry" />
        </mxCell>
      </root>
    </mxGraphModel>
  </diagram>
  <diagram name="Page-3" id="mCsR795yCDM9OWYh5kPg">
    <mxGraphModel dx="2226" dy="1349" grid="1" gridSize="10" guides="1" tooltips="1" connect="1" arrows="1" fold="1" page="1" pageScale="1" pageWidth="2339" pageHeight="3300" background="none" math="0" shadow="0">
      <root>
        <mxCell id="cbpJ6Q3qMxizhL3QGmPP-0" />
        <mxCell id="cbpJ6Q3qMxizhL3QGmPP-1" parent="cbpJ6Q3qMxizhL3QGmPP-0" />
        <mxCell id="DXg-gg7gLo4bqawgru77-0" value="&lt;p style=&quot;margin: 0px ; margin-top: 4px ; text-align: center&quot;&gt;&lt;font&gt;&lt;i&gt;&amp;lt;&amp;lt;Interface&amp;gt;&amp;gt;&lt;/i&gt;&lt;br&gt;&lt;b&gt;声量系统对外接口&lt;/b&gt;&lt;/font&gt;&lt;/p&gt;&lt;hr size=&quot;1&quot;&gt;&lt;p style=&quot;margin: 0px ; margin-left: 4px&quot;&gt;&lt;font&gt;+ appkey : string&lt;br&gt;+ channel : int&lt;/font&gt;&lt;/p&gt;&lt;p style=&quot;margin: 0px ; margin-left: 4px&quot;&gt;&lt;font&gt;+ userId : string&lt;/font&gt;&lt;/p&gt;&lt;p style=&quot;margin: 0px ; margin-left: 4px&quot;&gt;&lt;font&gt;+ receivePolicy : int&lt;/font&gt;&lt;/p&gt;&lt;p style=&quot;margin: 0px ; margin-left: 4px&quot;&gt;&lt;font&gt;+ reportPolicy : int&amp;nbsp;&lt;/font&gt;&lt;/p&gt;&lt;hr size=&quot;1&quot;&gt;&lt;p style=&quot;margin: 0px ; margin-left: 4px&quot;&gt;&lt;font&gt;+ initConfig()&lt;/font&gt;&lt;/p&gt;&lt;p style=&quot;margin: 0px ; margin-left: 4px&quot;&gt;&lt;font&gt;+ initVolumeSystem()&lt;/font&gt;&lt;/p&gt;&lt;p style=&quot;margin: 0px ; margin-left: 4px&quot;&gt;&lt;font&gt;+ initKeyWords()&lt;/font&gt;&lt;/p&gt;&lt;p style=&quot;margin: 0px ; margin-left: 4px&quot;&gt;&lt;font&gt;+ getKeyWordsList()&lt;/font&gt;&lt;/p&gt;&lt;p style=&quot;margin: 0px ; margin-left: 4px&quot;&gt;&lt;font&gt;+ analysText()&lt;/font&gt;&lt;/p&gt;&lt;p style=&quot;margin: 0px ; margin-left: 4px&quot;&gt;&lt;font&gt;+ getVolumeDataByWordId()&lt;/font&gt;&lt;/p&gt;&lt;p style=&quot;margin: 0px ; margin-left: 4px&quot;&gt;&lt;font&gt;+ getVolumeDataByContentId()&lt;/font&gt;&lt;/p&gt;&lt;p style=&quot;margin: 0px ; margin-left: 4px&quot;&gt;&lt;font&gt;+ postVolumeData()&lt;/font&gt;&lt;/p&gt;&lt;p style=&quot;margin: 0px ; margin-left: 4px&quot;&gt;&lt;br&gt;&lt;/p&gt;" style="verticalAlign=top;align=left;overflow=fill;fontSize=12;fontFamily=Helvetica;html=1;strokeColor=#000000;strokeWidth=1;fillColor=none;fontColor=#666666;" vertex="1" parent="cbpJ6Q3qMxizhL3QGmPP-1">
          <mxGeometry x="897.5" y="234" width="192.5" height="246" as="geometry" />
        </mxCell>
        <mxCell id="DXg-gg7gLo4bqawgru77-1" value="Reply 回帖" style="swimlane;fontStyle=1;align=center;verticalAlign=top;childLayout=stackLayout;horizontal=1;startSize=26;horizontalStack=0;resizeParent=1;resizeParentMax=0;resizeLast=0;collapsible=1;marginBottom=0;strokeColor=#000000;strokeWidth=1;fillColor=none;fontColor=#666666;" vertex="1" parent="cbpJ6Q3qMxizhL3QGmPP-1">
          <mxGeometry x="1410" y="272" width="160" height="200" as="geometry" />
        </mxCell>
        <mxCell id="DXg-gg7gLo4bqawgru77-2" value="+ content : string&#xa;+ post_id : int&#xa;+ reply_id : int&#xa;+ user_id : string&#xa;+ create_time : date" style="text;strokeColor=none;fillColor=none;align=left;verticalAlign=top;spacingLeft=4;spacingRight=4;overflow=hidden;rotatable=0;points=[[0,0.5],[1,0.5]];portConstraint=eastwest;fontColor=#666666;" vertex="1" parent="DXg-gg7gLo4bqawgru77-1">
          <mxGeometry y="26" width="160" height="84" as="geometry" />
        </mxCell>
        <mxCell id="DXg-gg7gLo4bqawgru77-3" value="" style="line;strokeWidth=1;fillColor=none;align=left;verticalAlign=middle;spacingTop=-1;spacingLeft=3;spacingRight=3;rotatable=0;labelPosition=right;points=[];portConstraint=eastwest;fontColor=#666666;" vertex="1" parent="DXg-gg7gLo4bqawgru77-1">
          <mxGeometry y="110" width="160" height="8" as="geometry" />
        </mxCell>
        <mxCell id="DXg-gg7gLo4bqawgru77-4" value="+ verify()&#xa;+ addPhoto()&#xa;+ addVideo()&#xa;+ addEmoticon()&#xa;+ postReply()" style="text;strokeColor=none;fillColor=none;align=left;verticalAlign=top;spacingLeft=4;spacingRight=4;overflow=hidden;rotatable=0;points=[[0,0.5],[1,0.5]];portConstraint=eastwest;fontColor=#666666;" vertex="1" parent="DXg-gg7gLo4bqawgru77-1">
          <mxGeometry y="118" width="160" height="82" as="geometry" />
        </mxCell>
        <mxCell id="DXg-gg7gLo4bqawgru77-5" style="edgeStyle=orthogonalEdgeStyle;rounded=0;orthogonalLoop=1;jettySize=auto;html=1;exitX=1;exitY=0.5;exitDx=0;exitDy=0;entryX=1;entryY=0.717;entryDx=0;entryDy=0;entryPerimeter=0;dashed=1;startSize=12;endArrow=none;endFill=0;endSize=12;fontColor=#666666;" edge="1" parent="cbpJ6Q3qMxizhL3QGmPP-1" source="DXg-gg7gLo4bqawgru77-6" target="DXg-gg7gLo4bqawgru77-10">
          <mxGeometry relative="1" as="geometry">
            <Array as="points">
              <mxPoint x="1650" y="553" />
              <mxPoint x="1650" y="138" />
            </Array>
          </mxGeometry>
        </mxCell>
        <mxCell id="DXg-gg7gLo4bqawgru77-6" value="cms" style="swimlane;fontStyle=1;align=center;verticalAlign=top;childLayout=stackLayout;horizontal=1;startSize=26;horizontalStack=0;resizeParent=1;resizeParentMax=0;resizeLast=0;collapsible=1;marginBottom=0;strokeColor=#000000;strokeWidth=1;fillColor=none;fontColor=#666666;" vertex="1" parent="cbpJ6Q3qMxizhL3QGmPP-1">
          <mxGeometry x="1410" y="490" width="170" height="132" as="geometry" />
        </mxCell>
        <mxCell id="DXg-gg7gLo4bqawgru77-7" value="+ title : string&#xa;+ content : string&#xa;+ type : int&#xa;+ createTime : date" style="text;strokeColor=#000000;fillColor=none;align=left;verticalAlign=top;spacingLeft=4;spacingRight=4;overflow=hidden;rotatable=0;points=[[0,0.5],[1,0.5]];portConstraint=eastwest;strokeWidth=1;fontColor=#666666;" vertex="1" parent="DXg-gg7gLo4bqawgru77-6">
          <mxGeometry y="26" width="170" height="64" as="geometry" />
        </mxCell>
        <mxCell id="DXg-gg7gLo4bqawgru77-8" value="+ getCmsById()&#xa;+ verify()" style="text;strokeColor=none;fillColor=none;align=left;verticalAlign=top;spacingLeft=4;spacingRight=4;overflow=hidden;rotatable=0;points=[[0,0.5],[1,0.5]];portConstraint=eastwest;fontColor=#666666;" vertex="1" parent="DXg-gg7gLo4bqawgru77-6">
          <mxGeometry y="90" width="170" height="42" as="geometry" />
        </mxCell>
        <mxCell id="DXg-gg7gLo4bqawgru77-9" value="Post 发帖" style="swimlane;fontStyle=1;align=center;verticalAlign=top;childLayout=stackLayout;horizontal=1;startSize=26;horizontalStack=0;resizeParent=1;resizeParentMax=0;resizeLast=0;collapsible=1;marginBottom=0;strokeColor=#000000;strokeWidth=1;fillColor=none;fontColor=#666666;" vertex="1" parent="cbpJ6Q3qMxizhL3QGmPP-1">
          <mxGeometry x="1410" y="45" width="160" height="210" as="geometry" />
        </mxCell>
        <mxCell id="DXg-gg7gLo4bqawgru77-10" value="+ title: string&#xa;+ content: string&#xa;+ category: string&#xa;+ userId: int&#xa;+ createTime: datetime&#xa;+ type: int" style="text;strokeColor=none;fillColor=none;align=left;verticalAlign=top;spacingLeft=4;spacingRight=4;overflow=hidden;rotatable=0;points=[[0,0.5],[1,0.5]];portConstraint=eastwest;fontColor=#666666;" vertex="1" parent="DXg-gg7gLo4bqawgru77-9">
          <mxGeometry y="26" width="160" height="94" as="geometry" />
        </mxCell>
        <mxCell id="DXg-gg7gLo4bqawgru77-11" value="" style="line;strokeWidth=1;fillColor=none;align=left;verticalAlign=middle;spacingTop=-1;spacingLeft=3;spacingRight=3;rotatable=0;labelPosition=right;points=[];portConstraint=eastwest;fontColor=#666666;" vertex="1" parent="DXg-gg7gLo4bqawgru77-9">
          <mxGeometry y="120" width="160" height="8" as="geometry" />
        </mxCell>
        <mxCell id="DXg-gg7gLo4bqawgru77-12" value="+ verify()&#xa;+ addPhoto()&#xa;+ addVideo()&#xa;+ addEmoticon()&#xa;+ post()" style="text;strokeColor=none;fillColor=none;align=left;verticalAlign=top;spacingLeft=4;spacingRight=4;overflow=hidden;rotatable=0;points=[[0,0.5],[1,0.5]];portConstraint=eastwest;whiteSpace=wrap;fontColor=#666666;" vertex="1" parent="DXg-gg7gLo4bqawgru77-9">
          <mxGeometry y="128" width="160" height="82" as="geometry" />
        </mxCell>
        <mxCell id="DXg-gg7gLo4bqawgru77-13" style="edgeStyle=orthogonalEdgeStyle;rounded=0;comic=0;jumpStyle=none;orthogonalLoop=1;jettySize=auto;html=1;exitX=0.5;exitY=0;exitDx=0;exitDy=0;entryX=0.5;entryY=1;entryDx=0;entryDy=0;shadow=0;startArrow=none;startFill=0;startSize=12;endArrow=block;endFill=0;endSize=12;strokeColor=#000000;strokeWidth=1;fillColor=#FFFFFF;dashed=1;fontColor=#666666;" edge="1" parent="cbpJ6Q3qMxizhL3QGmPP-1" source="DXg-gg7gLo4bqawgru77-14" target="DXg-gg7gLo4bqawgru77-0">
          <mxGeometry relative="1" as="geometry">
            <Array as="points">
              <mxPoint x="760" y="580" />
              <mxPoint x="993" y="580" />
            </Array>
          </mxGeometry>
        </mxCell>
        <mxCell id="DXg-gg7gLo4bqawgru77-14" value="文本声量检测" style="swimlane;fontStyle=1;align=center;verticalAlign=top;childLayout=stackLayout;horizontal=1;startSize=26;horizontalStack=0;resizeParent=1;resizeParentMax=0;resizeLast=0;collapsible=1;marginBottom=0;strokeColor=#000000;strokeWidth=1;fillColor=none;fontColor=#666666;" vertex="1" parent="cbpJ6Q3qMxizhL3QGmPP-1">
          <mxGeometry x="680" y="630" width="170" height="190" as="geometry" />
        </mxCell>
        <mxCell id="DXg-gg7gLo4bqawgru77-15" value="+ content : sting&#xa;+ keywords: array&#xa;+ userId : int&#xa;+ type : int&#xa;+ contentId : int" style="text;strokeColor=none;fillColor=none;align=left;verticalAlign=top;spacingLeft=4;spacingRight=4;overflow=hidden;rotatable=0;points=[[0,0.5],[1,0.5]];portConstraint=eastwest;fontColor=#666666;" vertex="1" parent="DXg-gg7gLo4bqawgru77-14">
          <mxGeometry y="26" width="170" height="84" as="geometry" />
        </mxCell>
        <mxCell id="DXg-gg7gLo4bqawgru77-16" value="" style="line;strokeWidth=1;fillColor=none;align=left;verticalAlign=middle;spacingTop=-1;spacingLeft=3;spacingRight=3;rotatable=0;labelPosition=right;points=[];portConstraint=eastwest;fontColor=#666666;" vertex="1" parent="DXg-gg7gLo4bqawgru77-14">
          <mxGeometry y="110" width="170" height="8" as="geometry" />
        </mxCell>
        <mxCell id="DXg-gg7gLo4bqawgru77-17" value="+ verifyContent()&#xa;+ analysConByKeyword()&#xa;+ saveVolDataWithKeyword()" style="text;strokeColor=none;fillColor=none;align=left;verticalAlign=top;spacingLeft=4;spacingRight=4;overflow=hidden;rotatable=0;points=[[0,0.5],[1,0.5]];portConstraint=eastwest;fontColor=#666666;" vertex="1" parent="DXg-gg7gLo4bqawgru77-14">
          <mxGeometry y="118" width="170" height="72" as="geometry" />
        </mxCell>
        <mxCell id="DXg-gg7gLo4bqawgru77-18" style="edgeStyle=orthogonalEdgeStyle;rounded=0;comic=0;jumpStyle=none;orthogonalLoop=1;jettySize=auto;html=1;exitX=0.5;exitY=0;exitDx=0;exitDy=0;entryX=0.5;entryY=0;entryDx=0;entryDy=0;shadow=0;startArrow=none;startFill=0;startSize=12;endArrow=none;endFill=0;endSize=12;strokeColor=#000000;strokeWidth=1;fillColor=#FFFFFF;dashed=1;fontColor=#666666;" edge="1" parent="cbpJ6Q3qMxizhL3QGmPP-1" source="DXg-gg7gLo4bqawgru77-19" target="DXg-gg7gLo4bqawgru77-23">
          <mxGeometry relative="1" as="geometry">
            <Array as="points">
              <mxPoint x="440" y="580" />
              <mxPoint x="1100" y="580" />
            </Array>
          </mxGeometry>
        </mxCell>
        <mxCell id="DXg-gg7gLo4bqawgru77-19" value="关键词库管理" style="swimlane;fontStyle=1;align=center;verticalAlign=top;childLayout=stackLayout;horizontal=1;startSize=26;horizontalStack=0;resizeParent=1;resizeParentMax=0;resizeLast=0;collapsible=1;marginBottom=0;strokeColor=#000000;strokeWidth=1;fillColor=none;fontColor=#666666;" vertex="1" parent="cbpJ6Q3qMxizhL3QGmPP-1">
          <mxGeometry x="360" y="630" width="200" height="210" as="geometry" />
        </mxCell>
        <mxCell id="DXg-gg7gLo4bqawgru77-20" value="+ receivePolicy: int&#xa;+ serverUrl : string&#xa;+ intervalTime: int&#xa;+ lastTime : date&#xa;" style="text;strokeColor=none;fillColor=none;align=left;verticalAlign=top;spacingLeft=4;spacingRight=4;overflow=hidden;rotatable=0;points=[[0,0.5],[1,0.5]];portConstraint=eastwest;fontColor=#666666;" vertex="1" parent="DXg-gg7gLo4bqawgru77-19">
          <mxGeometry y="26" width="200" height="74" as="geometry" />
        </mxCell>
        <mxCell id="DXg-gg7gLo4bqawgru77-21" value="" style="line;strokeWidth=1;fillColor=none;align=left;verticalAlign=middle;spacingTop=-1;spacingLeft=3;spacingRight=3;rotatable=0;labelPosition=right;points=[];portConstraint=eastwest;fontColor=#666666;" vertex="1" parent="DXg-gg7gLo4bqawgru77-19">
          <mxGeometry y="100" width="200" height="8" as="geometry" />
        </mxCell>
        <mxCell id="DXg-gg7gLo4bqawgru77-22" value="+ initKeyWord()&#xa;+ getKeyWordFromCache()&#xa;+ getKeyWordFromServer()&#xa;+ verifyKeyWord()&#xa;+ saveKeyWord()&#xa;+ deleteKeyWord()" style="text;strokeColor=none;fillColor=none;align=left;verticalAlign=top;spacingLeft=4;spacingRight=4;overflow=hidden;rotatable=0;points=[[0,0.5],[1,0.5]];portConstraint=eastwest;fontColor=#666666;" vertex="1" parent="DXg-gg7gLo4bqawgru77-19">
          <mxGeometry y="108" width="200" height="102" as="geometry" />
        </mxCell>
        <mxCell id="DXg-gg7gLo4bqawgru77-23" value="声量数据管理" style="swimlane;fontStyle=1;align=center;verticalAlign=top;childLayout=stackLayout;horizontal=1;startSize=26;horizontalStack=0;resizeParent=1;resizeParentMax=0;resizeLast=0;collapsible=1;marginBottom=0;strokeColor=#000000;strokeWidth=1;fillColor=none;fontColor=#666666;" vertex="1" parent="cbpJ6Q3qMxizhL3QGmPP-1">
          <mxGeometry x="1010" y="650" width="180" height="210" as="geometry" />
        </mxCell>
        <mxCell id="DXg-gg7gLo4bqawgru77-24" value="+ keyWordId: int&#xa;+ contentId : int&#xa;+ createTime : date&#xa;+ currentNum : int&#xa;&#xa;&#xa;" style="text;strokeColor=none;fillColor=none;align=left;verticalAlign=top;spacingLeft=4;spacingRight=4;overflow=hidden;rotatable=0;points=[[0,0.5],[1,0.5]];portConstraint=eastwest;fontColor=#666666;" vertex="1" parent="DXg-gg7gLo4bqawgru77-23">
          <mxGeometry y="26" width="180" height="64" as="geometry" />
        </mxCell>
        <mxCell id="DXg-gg7gLo4bqawgru77-25" value="" style="line;strokeWidth=1;fillColor=none;align=left;verticalAlign=middle;spacingTop=-1;spacingLeft=3;spacingRight=3;rotatable=0;labelPosition=right;points=[];portConstraint=eastwest;fontColor=#666666;" vertex="1" parent="DXg-gg7gLo4bqawgru77-23">
          <mxGeometry y="90" width="180" height="8" as="geometry" />
        </mxCell>
        <mxCell id="DXg-gg7gLo4bqawgru77-26" value="+ addVolumeData()&#xa;+ editVolumeData()&#xa;+ deleteVolumeData()&#xa;+ getVolumeDataByWordId()&#xa;+ getVolumeDataByContentId()&#xa;+ getVolumeDataList()&#xa;+ getCurrentDataNum()" style="text;strokeColor=none;fillColor=none;align=left;verticalAlign=top;spacingLeft=4;spacingRight=4;overflow=hidden;rotatable=0;points=[[0,0.5],[1,0.5]];portConstraint=eastwest;fontColor=#666666;" vertex="1" parent="DXg-gg7gLo4bqawgru77-23">
          <mxGeometry y="98" width="180" height="112" as="geometry" />
        </mxCell>
        <mxCell id="DXg-gg7gLo4bqawgru77-27" value="Cache 缓存管理" style="swimlane;fontStyle=1;align=center;verticalAlign=top;childLayout=stackLayout;horizontal=1;startSize=26;horizontalStack=0;resizeParent=1;resizeParentMax=0;resizeLast=0;collapsible=1;marginBottom=0;strokeColor=#000000;strokeWidth=1;fillColor=none;fontColor=#666666;" vertex="1" parent="cbpJ6Q3qMxizhL3QGmPP-1">
          <mxGeometry x="610" y="950" width="170" height="230" as="geometry" />
        </mxCell>
        <mxCell id="DXg-gg7gLo4bqawgru77-28" value="+ cacheType: int&#xa;+ cachePath :int&#xa;+ cacheSize: int&#xa;+ expireTime : int" style="text;strokeColor=none;fillColor=none;align=left;verticalAlign=top;spacingLeft=4;spacingRight=4;overflow=hidden;rotatable=0;points=[[0,0.5],[1,0.5]];portConstraint=eastwest;fontColor=#666666;" vertex="1" parent="DXg-gg7gLo4bqawgru77-27">
          <mxGeometry y="26" width="170" height="64" as="geometry" />
        </mxCell>
        <mxCell id="DXg-gg7gLo4bqawgru77-29" value="" style="line;strokeWidth=1;fillColor=none;align=left;verticalAlign=middle;spacingTop=-1;spacingLeft=3;spacingRight=3;rotatable=0;labelPosition=right;points=[];portConstraint=eastwest;fontColor=#666666;" vertex="1" parent="DXg-gg7gLo4bqawgru77-27">
          <mxGeometry y="90" width="170" height="8" as="geometry" />
        </mxCell>
        <mxCell id="DXg-gg7gLo4bqawgru77-30" value="+ getCacheData()&#xa;+ addCacheData()&#xa;+ deleteCacheData()&#xa;+ editCacheData()&#xa;+ asynGetCacheData()&#xa;+ asynAddCacheData()&#xa;+ asynDeleteCacheData()&#xa;+ asynEditCacheData()&#xa;" style="text;strokeColor=none;fillColor=none;align=left;verticalAlign=top;spacingLeft=4;spacingRight=4;overflow=hidden;rotatable=0;points=[[0,0.5],[1,0.5]];portConstraint=eastwest;fontColor=#666666;" vertex="1" parent="DXg-gg7gLo4bqawgru77-27">
          <mxGeometry y="98" width="170" height="132" as="geometry" />
        </mxCell>
        <mxCell id="DXg-gg7gLo4bqawgru77-31" style="edgeStyle=orthogonalEdgeStyle;rounded=0;comic=0;jumpStyle=none;orthogonalLoop=1;jettySize=auto;html=1;exitX=0.5;exitY=0;exitDx=0;exitDy=0;entryX=0.5;entryY=1;entryDx=0;entryDy=0;entryPerimeter=0;shadow=0;startArrow=diamondThin;startFill=0;startSize=12;endArrow=open;endFill=0;endSize=12;strokeColor=#000000;strokeWidth=1;fillColor=#FFFFFF;fontColor=#666666;" edge="1" parent="cbpJ6Q3qMxizhL3QGmPP-1" source="DXg-gg7gLo4bqawgru77-32" target="DXg-gg7gLo4bqawgru77-26">
          <mxGeometry relative="1" as="geometry" />
        </mxCell>
        <mxCell id="DXg-gg7gLo4bqawgru77-32" value="VolPackage 声量数据包" style="swimlane;fontStyle=1;align=center;verticalAlign=top;childLayout=stackLayout;horizontal=1;startSize=26;horizontalStack=0;resizeParent=1;resizeParentMax=0;resizeLast=0;collapsible=1;marginBottom=0;strokeColor=#000000;strokeWidth=1;fillColor=none;fontColor=#666666;" vertex="1" parent="cbpJ6Q3qMxizhL3QGmPP-1">
          <mxGeometry x="1015" y="960" width="170" height="180" as="geometry" />
        </mxCell>
        <mxCell id="DXg-gg7gLo4bqawgru77-33" value="+ reportPolicy: int&#xa;+ serverUrl : string&#xa;+ intervalTime : int&#xa;+ lastTime : date" style="text;strokeColor=none;fillColor=none;align=left;verticalAlign=top;spacingLeft=4;spacingRight=4;overflow=hidden;rotatable=0;points=[[0,0.5],[1,0.5]];portConstraint=eastwest;fontColor=#666666;" vertex="1" parent="DXg-gg7gLo4bqawgru77-32">
          <mxGeometry y="26" width="170" height="74" as="geometry" />
        </mxCell>
        <mxCell id="DXg-gg7gLo4bqawgru77-34" value="" style="line;strokeWidth=1;fillColor=none;align=left;verticalAlign=middle;spacingTop=-1;spacingLeft=3;spacingRight=3;rotatable=0;labelPosition=right;points=[];portConstraint=eastwest;fontColor=#666666;" vertex="1" parent="DXg-gg7gLo4bqawgru77-32">
          <mxGeometry y="100" width="170" height="8" as="geometry" />
        </mxCell>
        <mxCell id="DXg-gg7gLo4bqawgru77-35" value="+ createPackage()&#xa;+ postPackage()&#xa;+ deletePackage()" style="text;strokeColor=none;fillColor=none;align=left;verticalAlign=top;spacingLeft=4;spacingRight=4;overflow=hidden;rotatable=0;points=[[0,0.5],[1,0.5]];portConstraint=eastwest;fontColor=#666666;" vertex="1" parent="DXg-gg7gLo4bqawgru77-32">
          <mxGeometry y="108" width="170" height="72" as="geometry" />
        </mxCell>
        <mxCell id="DXg-gg7gLo4bqawgru77-36" value="User 用户" style="swimlane;fontStyle=1;align=center;verticalAlign=top;childLayout=stackLayout;horizontal=1;startSize=26;horizontalStack=0;resizeParent=1;resizeParentMax=0;resizeLast=0;collapsible=1;marginBottom=0;strokeColor=#000000;strokeWidth=1;fillColor=none;fontColor=#666666;" vertex="1" parent="cbpJ6Q3qMxizhL3QGmPP-1">
          <mxGeometry x="1790" y="252" width="190" height="230" as="geometry" />
        </mxCell>
        <mxCell id="DXg-gg7gLo4bqawgru77-37" value="+ user_id : string&#xa;+ nickname : string&#xa;+ avatar : string&#xa;+ status : int&#xa;+ birthday : date&#xa;+ gender : int&#xa;+ baby_gender : int&#xa;+ created_time : date" style="text;strokeColor=none;fillColor=none;align=left;verticalAlign=top;spacingLeft=4;spacingRight=4;overflow=hidden;rotatable=0;points=[[0,0.5],[1,0.5]];portConstraint=eastwest;fontColor=#666666;" vertex="1" parent="DXg-gg7gLo4bqawgru77-36">
          <mxGeometry y="26" width="190" height="124" as="geometry" />
        </mxCell>
        <mxCell id="DXg-gg7gLo4bqawgru77-38" value="" style="line;strokeWidth=1;fillColor=none;align=left;verticalAlign=middle;spacingTop=-1;spacingLeft=3;spacingRight=3;rotatable=0;labelPosition=right;points=[];portConstraint=eastwest;fontColor=#666666;" vertex="1" parent="DXg-gg7gLo4bqawgru77-36">
          <mxGeometry y="150" width="190" height="8" as="geometry" />
        </mxCell>
        <mxCell id="DXg-gg7gLo4bqawgru77-39" value="+ initInfo()&#xa;+ updateInfo()&#xa;+ destroyInfo()&#xa;" style="text;strokeColor=none;fillColor=none;align=left;verticalAlign=top;spacingLeft=4;spacingRight=4;overflow=hidden;rotatable=0;points=[[0,0.5],[1,0.5]];portConstraint=eastwest;fontColor=#666666;" vertex="1" parent="DXg-gg7gLo4bqawgru77-36">
          <mxGeometry y="158" width="190" height="72" as="geometry" />
        </mxCell>
        <mxCell id="DXg-gg7gLo4bqawgru77-40" value="获取规则" style="swimlane;fontStyle=1;align=center;verticalAlign=top;childLayout=stackLayout;horizontal=1;startSize=26;horizontalStack=0;resizeParent=1;resizeParentMax=0;resizeLast=0;collapsible=1;marginBottom=0;strokeColor=#000000;strokeWidth=1;fillColor=none;fontColor=#666666;" vertex="1" parent="cbpJ6Q3qMxizhL3QGmPP-1">
          <mxGeometry x="552.5" y="230" width="160" height="90" as="geometry" />
        </mxCell>
        <mxCell id="DXg-gg7gLo4bqawgru77-41" value="+ background : int" style="text;strokeColor=none;fillColor=none;align=left;verticalAlign=top;spacingLeft=4;spacingRight=4;overflow=hidden;rotatable=0;points=[[0,0.5],[1,0.5]];portConstraint=eastwest;fontColor=#666666;" vertex="1" parent="DXg-gg7gLo4bqawgru77-40">
          <mxGeometry y="26" width="160" height="24" as="geometry" />
        </mxCell>
        <mxCell id="DXg-gg7gLo4bqawgru77-42" value="" style="line;strokeWidth=1;fillColor=none;align=left;verticalAlign=middle;spacingTop=-1;spacingLeft=3;spacingRight=3;rotatable=0;labelPosition=right;points=[];portConstraint=eastwest;fontColor=#666666;" vertex="1" parent="DXg-gg7gLo4bqawgru77-40">
          <mxGeometry y="50" width="160" height="8" as="geometry" />
        </mxCell>
        <mxCell id="DXg-gg7gLo4bqawgru77-43" value="+ initReceiveRule()" style="text;strokeColor=none;fillColor=none;align=left;verticalAlign=top;spacingLeft=4;spacingRight=4;overflow=hidden;rotatable=0;points=[[0,0.5],[1,0.5]];portConstraint=eastwest;fontColor=#666666;" vertex="1" parent="DXg-gg7gLo4bqawgru77-40">
          <mxGeometry y="58" width="160" height="32" as="geometry" />
        </mxCell>
        <mxCell id="DXg-gg7gLo4bqawgru77-44" value="发送规则" style="swimlane;fontStyle=1;align=center;verticalAlign=top;childLayout=stackLayout;horizontal=1;startSize=26;horizontalStack=0;resizeParent=1;resizeParentMax=0;resizeLast=0;collapsible=1;marginBottom=0;strokeColor=#000000;strokeWidth=1;fillColor=none;fontColor=#666666;" vertex="1" parent="cbpJ6Q3qMxizhL3QGmPP-1">
          <mxGeometry x="552.5" y="399" width="160" height="86" as="geometry" />
        </mxCell>
        <mxCell id="DXg-gg7gLo4bqawgru77-45" value="+ smartPolicy : Int" style="text;strokeColor=none;fillColor=none;align=left;verticalAlign=top;spacingLeft=4;spacingRight=4;overflow=hidden;rotatable=0;points=[[0,0.5],[1,0.5]];portConstraint=eastwest;fontColor=#666666;" vertex="1" parent="DXg-gg7gLo4bqawgru77-44">
          <mxGeometry y="26" width="160" height="26" as="geometry" />
        </mxCell>
        <mxCell id="DXg-gg7gLo4bqawgru77-46" value="" style="line;strokeWidth=1;fillColor=none;align=left;verticalAlign=middle;spacingTop=-1;spacingLeft=3;spacingRight=3;rotatable=0;labelPosition=right;points=[];portConstraint=eastwest;fontColor=#666666;" vertex="1" parent="DXg-gg7gLo4bqawgru77-44">
          <mxGeometry y="52" width="160" height="8" as="geometry" />
        </mxCell>
        <mxCell id="DXg-gg7gLo4bqawgru77-47" value="+ initReportRule()" style="text;strokeColor=none;fillColor=none;align=left;verticalAlign=top;spacingLeft=4;spacingRight=4;overflow=hidden;rotatable=0;points=[[0,0.5],[1,0.5]];portConstraint=eastwest;fontColor=#666666;" vertex="1" parent="DXg-gg7gLo4bqawgru77-44">
          <mxGeometry y="60" width="160" height="26" as="geometry" />
        </mxCell>
        <mxCell id="DXg-gg7gLo4bqawgru77-48" value="规则" style="swimlane;fontStyle=1;align=center;verticalAlign=top;childLayout=stackLayout;horizontal=1;startSize=26;horizontalStack=0;resizeParent=1;resizeParentMax=0;resizeLast=0;collapsible=1;marginBottom=0;strokeColor=#000000;strokeWidth=1;fillColor=none;fontColor=#666666;" vertex="1" parent="cbpJ6Q3qMxizhL3QGmPP-1">
          <mxGeometry x="302.5" y="284" width="180" height="120" as="geometry" />
        </mxCell>
        <mxCell id="DXg-gg7gLo4bqawgru77-49" value="+ realtime: Int&#xa;+ batch: Int&#xa;+ interval: Int" style="text;strokeColor=none;fillColor=none;align=left;verticalAlign=top;spacingLeft=4;spacingRight=4;overflow=hidden;rotatable=0;points=[[0,0.5],[1,0.5]];portConstraint=eastwest;fontColor=#666666;" vertex="1" parent="DXg-gg7gLo4bqawgru77-48">
          <mxGeometry y="26" width="180" height="54" as="geometry" />
        </mxCell>
        <mxCell id="DXg-gg7gLo4bqawgru77-50" value="" style="line;strokeWidth=1;fillColor=none;align=left;verticalAlign=middle;spacingTop=-1;spacingLeft=3;spacingRight=3;rotatable=0;labelPosition=right;points=[];portConstraint=eastwest;fontColor=#666666;" vertex="1" parent="DXg-gg7gLo4bqawgru77-48">
          <mxGeometry y="80" width="180" height="8" as="geometry" />
        </mxCell>
        <mxCell id="DXg-gg7gLo4bqawgru77-51" value="+ initRule()" style="text;strokeColor=none;fillColor=none;align=left;verticalAlign=top;spacingLeft=4;spacingRight=4;overflow=hidden;rotatable=0;points=[[0,0.5],[1,0.5]];portConstraint=eastwest;fontColor=#666666;" vertex="1" parent="DXg-gg7gLo4bqawgru77-48">
          <mxGeometry y="88" width="180" height="32" as="geometry" />
        </mxCell>
        <mxCell id="DXg-gg7gLo4bqawgru77-52" style="edgeStyle=orthogonalEdgeStyle;rounded=0;comic=0;jumpStyle=none;orthogonalLoop=1;jettySize=auto;html=1;exitX=0;exitY=0.5;exitDx=0;exitDy=0;shadow=0;startArrow=none;startFill=0;startSize=12;endArrow=block;endFill=0;endSize=12;strokeColor=#000000;strokeWidth=1;fillColor=#FFFFFF;fontColor=#666666;" edge="1" parent="cbpJ6Q3qMxizhL3QGmPP-1" source="DXg-gg7gLo4bqawgru77-41" target="DXg-gg7gLo4bqawgru77-49">
          <mxGeometry relative="1" as="geometry" />
        </mxCell>
        <mxCell id="DXg-gg7gLo4bqawgru77-53" style="edgeStyle=orthogonalEdgeStyle;rounded=0;comic=0;jumpStyle=none;orthogonalLoop=1;jettySize=auto;html=1;exitX=0;exitY=0.5;exitDx=0;exitDy=0;entryX=1;entryY=0.5;entryDx=0;entryDy=0;shadow=0;startArrow=none;startFill=0;startSize=12;endArrow=block;endFill=0;endSize=12;strokeColor=#000000;strokeWidth=1;fillColor=#FFFFFF;fontColor=#666666;" edge="1" parent="cbpJ6Q3qMxizhL3QGmPP-1" source="DXg-gg7gLo4bqawgru77-45" target="DXg-gg7gLo4bqawgru77-49">
          <mxGeometry relative="1" as="geometry" />
        </mxCell>
        <mxCell id="DXg-gg7gLo4bqawgru77-54" style="edgeStyle=orthogonalEdgeStyle;rounded=0;comic=0;jumpStyle=none;orthogonalLoop=1;jettySize=auto;html=1;exitX=0;exitY=0.5;exitDx=0;exitDy=0;shadow=0;startArrow=none;startFill=0;startSize=12;endArrow=none;endFill=0;endSize=12;strokeColor=#000000;strokeWidth=1;fillColor=#FFFFFF;fontColor=#666666;" edge="1" parent="cbpJ6Q3qMxizhL3QGmPP-1" source="DXg-gg7gLo4bqawgru77-10" target="DXg-gg7gLo4bqawgru77-7">
          <mxGeometry relative="1" as="geometry">
            <Array as="points">
              <mxPoint x="1410" y="141" />
              <mxPoint x="1320" y="141" />
              <mxPoint x="1320" y="551" />
            </Array>
          </mxGeometry>
        </mxCell>
        <mxCell id="DXg-gg7gLo4bqawgru77-55" style="edgeStyle=orthogonalEdgeStyle;rounded=0;comic=0;jumpStyle=none;orthogonalLoop=1;jettySize=auto;html=1;exitX=0;exitY=0.5;exitDx=0;exitDy=0;entryX=0.997;entryY=0.431;entryDx=0;entryDy=0;entryPerimeter=0;shadow=0;startArrow=none;startFill=0;startSize=12;endArrow=open;endFill=0;endSize=12;strokeColor=#000000;strokeWidth=1;fillColor=#FFFFFF;fontColor=#666666;" edge="1" parent="cbpJ6Q3qMxizhL3QGmPP-1" source="DXg-gg7gLo4bqawgru77-2" target="DXg-gg7gLo4bqawgru77-0">
          <mxGeometry relative="1" as="geometry" />
        </mxCell>
        <mxCell id="DXg-gg7gLo4bqawgru77-56" style="edgeStyle=orthogonalEdgeStyle;rounded=0;comic=0;jumpStyle=none;orthogonalLoop=1;jettySize=auto;html=1;shadow=0;startArrow=none;startFill=0;startSize=12;endArrow=diamondThin;endFill=0;endSize=12;strokeColor=#000000;strokeWidth=1;fillColor=#FFFFFF;exitX=1;exitY=0.5;exitDx=0;exitDy=0;fontColor=#666666;" edge="1" parent="cbpJ6Q3qMxizhL3QGmPP-1" source="DXg-gg7gLo4bqawgru77-45" target="DXg-gg7gLo4bqawgru77-0">
          <mxGeometry relative="1" as="geometry" />
        </mxCell>
        <mxCell id="DXg-gg7gLo4bqawgru77-57" style="edgeStyle=orthogonalEdgeStyle;rounded=0;comic=0;jumpStyle=none;orthogonalLoop=1;jettySize=auto;html=1;exitX=1;exitY=0.5;exitDx=0;exitDy=0;entryX=0;entryY=0.5;entryDx=0;entryDy=0;shadow=0;startArrow=none;startFill=0;startSize=12;endArrow=diamondThin;endFill=0;endSize=12;strokeColor=#000000;strokeWidth=1;fillColor=#FFFFFF;fontColor=#666666;" edge="1" parent="cbpJ6Q3qMxizhL3QGmPP-1" source="DXg-gg7gLo4bqawgru77-41" target="DXg-gg7gLo4bqawgru77-0">
          <mxGeometry relative="1" as="geometry" />
        </mxCell>
        <mxCell id="DXg-gg7gLo4bqawgru77-58" style="edgeStyle=orthogonalEdgeStyle;rounded=0;comic=0;jumpStyle=none;orthogonalLoop=1;jettySize=auto;html=1;exitX=0.358;exitY=1.025;exitDx=0;exitDy=0;entryX=0.5;entryY=0;entryDx=0;entryDy=0;shadow=0;startArrow=none;startFill=0;startSize=12;endArrow=open;endFill=0;endSize=12;strokeColor=#000000;strokeWidth=1;fillColor=#FFFFFF;exitPerimeter=0;dashed=1;fontColor=#666666;" edge="1" parent="cbpJ6Q3qMxizhL3QGmPP-1" source="DXg-gg7gLo4bqawgru77-22" target="DXg-gg7gLo4bqawgru77-27">
          <mxGeometry relative="1" as="geometry">
            <Array as="points">
              <mxPoint x="432" y="890" />
              <mxPoint x="695" y="890" />
            </Array>
          </mxGeometry>
        </mxCell>
        <mxCell id="DXg-gg7gLo4bqawgru77-59" style="edgeStyle=orthogonalEdgeStyle;rounded=0;comic=0;jumpStyle=none;orthogonalLoop=1;jettySize=auto;html=1;entryX=0.5;entryY=0;entryDx=0;entryDy=0;shadow=0;dashed=1;startArrow=none;startFill=0;startSize=12;endArrow=open;endFill=0;endSize=12;strokeColor=#000000;strokeWidth=1;fillColor=#FFFFFF;exitX=0.128;exitY=0.997;exitDx=0;exitDy=0;exitPerimeter=0;fontColor=#666666;" edge="1" parent="cbpJ6Q3qMxizhL3QGmPP-1" source="DXg-gg7gLo4bqawgru77-26" target="DXg-gg7gLo4bqawgru77-27">
          <mxGeometry relative="1" as="geometry">
            <Array as="points">
              <mxPoint x="1040" y="860" />
              <mxPoint x="1040" y="890" />
              <mxPoint x="695" y="890" />
            </Array>
            <mxPoint x="1030" y="880" as="sourcePoint" />
          </mxGeometry>
        </mxCell>
        <mxCell id="DXg-gg7gLo4bqawgru77-60" style="edgeStyle=orthogonalEdgeStyle;rounded=0;orthogonalLoop=1;jettySize=auto;html=1;exitX=1;exitY=0.5;exitDx=0;exitDy=0;entryX=0;entryY=0.5;entryDx=0;entryDy=0;dashed=1;endArrow=open;endFill=0;endSize=12;startSize=12;fontColor=#666666;" edge="1" parent="cbpJ6Q3qMxizhL3QGmPP-1" source="DXg-gg7gLo4bqawgru77-2" target="DXg-gg7gLo4bqawgru77-37">
          <mxGeometry relative="1" as="geometry" />
        </mxCell>
        <mxCell id="DXg-gg7gLo4bqawgru77-61" style="rounded=0;orthogonalLoop=1;jettySize=auto;html=1;exitX=0;exitY=0.5;exitDx=0;exitDy=0;entryX=1.01;entryY=0.595;entryDx=0;entryDy=0;entryPerimeter=0;dashed=1;startSize=12;endArrow=open;endFill=0;endSize=12;fontColor=#666666;" edge="1" parent="cbpJ6Q3qMxizhL3QGmPP-1" source="DXg-gg7gLo4bqawgru77-15" target="DXg-gg7gLo4bqawgru77-20">
          <mxGeometry relative="1" as="geometry" />
        </mxCell>
        <mxCell id="DXg-gg7gLo4bqawgru77-62" style="edgeStyle=orthogonalEdgeStyle;rounded=0;orthogonalLoop=1;jettySize=auto;html=1;exitX=1;exitY=0.5;exitDx=0;exitDy=0;entryX=0;entryY=0.346;entryDx=0;entryDy=0;entryPerimeter=0;dashed=1;startArrow=none;startFill=0;startSize=12;endArrow=open;endFill=0;endSize=12;fontColor=#666666;" edge="1" parent="cbpJ6Q3qMxizhL3QGmPP-1" source="DXg-gg7gLo4bqawgru77-15" target="DXg-gg7gLo4bqawgru77-24">
          <mxGeometry relative="1" as="geometry" />
        </mxCell>
      </root>
    </mxGraphModel>
  </diagram>
  <diagram name="Page-4" id="hoN2HyTou1AriOQAO7da">
    <mxGraphModel dx="1113" dy="674" grid="1" gridSize="10" guides="1" tooltips="1" connect="1" arrows="1" fold="1" page="1" pageScale="1" pageWidth="2339" pageHeight="3300" math="0" shadow="0">
      <root>
        <mxCell id="qjxAAcyEWRl83YmCa2ei-0" />
        <mxCell id="qjxAAcyEWRl83YmCa2ei-1" parent="qjxAAcyEWRl83YmCa2ei-0" />
        <mxCell id="qjxAAcyEWRl83YmCa2ei-7" value="&lt;p style=&quot;margin: 0px ; margin-top: 4px ; text-align: center&quot;&gt;&lt;font&gt;&lt;br&gt;&lt;b&gt;声量系统对外接口&lt;/b&gt;&lt;/font&gt;&lt;/p&gt;&lt;hr size=&quot;1&quot;&gt;&lt;p style=&quot;margin: 0px ; margin-left: 4px&quot;&gt;&lt;font&gt;+ appkey : string&lt;br&gt;+ channel : int&lt;/font&gt;&lt;/p&gt;&lt;p style=&quot;margin: 0px ; margin-left: 4px&quot;&gt;&lt;font&gt;+ userId : string&lt;/font&gt;&lt;/p&gt;&lt;p style=&quot;margin: 0px ; margin-left: 4px&quot;&gt;&lt;font&gt;+ receivePolicy : int&lt;/font&gt;&lt;/p&gt;&lt;p style=&quot;margin: 0px ; margin-left: 4px&quot;&gt;&lt;font&gt;+ reportPolicy : int&amp;nbsp;&lt;/font&gt;&lt;/p&gt;&lt;hr size=&quot;1&quot;&gt;&lt;p style=&quot;margin: 0px ; margin-left: 4px&quot;&gt;&lt;span&gt;+ initConfig()&lt;/span&gt;&lt;br&gt;&lt;/p&gt;&lt;p style=&quot;margin: 0px ; margin-left: 4px&quot;&gt;&lt;font&gt;+ initVolumeSystem()&lt;/font&gt;&lt;/p&gt;&lt;p style=&quot;margin: 0px ; margin-left: 4px&quot;&gt;&lt;font&gt;+ initKeyWords()&lt;/font&gt;&lt;/p&gt;&lt;p style=&quot;margin: 0px ; margin-left: 4px&quot;&gt;&lt;font&gt;+ getKeyWordsList()&lt;/font&gt;&lt;/p&gt;&lt;p style=&quot;margin: 0px ; margin-left: 4px&quot;&gt;&lt;font&gt;+ analysText()&lt;/font&gt;&lt;/p&gt;&lt;p style=&quot;margin: 0px ; margin-left: 4px&quot;&gt;&lt;font&gt;+ getVolumeDataByWordId()&lt;/font&gt;&lt;/p&gt;&lt;p style=&quot;margin: 0px ; margin-left: 4px&quot;&gt;&lt;font&gt;+ getVolumeDataByContentId()&lt;/font&gt;&lt;/p&gt;&lt;p style=&quot;margin: 0px ; margin-left: 4px&quot;&gt;&lt;font&gt;+ postVolumeData()&lt;/font&gt;&lt;/p&gt;&lt;p style=&quot;margin: 0px ; margin-left: 4px&quot;&gt;&lt;br&gt;&lt;/p&gt;" style="verticalAlign=top;align=left;overflow=fill;fontSize=12;fontFamily=Helvetica;html=1;strokeColor=#000000;strokeWidth=1;fillColor=none;fontColor=#666666;" parent="qjxAAcyEWRl83YmCa2ei-1" vertex="1">
          <mxGeometry x="897.5" y="234" width="192.5" height="256" as="geometry" />
        </mxCell>
        <mxCell id="qjxAAcyEWRl83YmCa2ei-11" value="Reply 回复" style="swimlane;fontStyle=1;align=center;verticalAlign=top;childLayout=stackLayout;horizontal=1;startSize=26;horizontalStack=0;resizeParent=1;resizeParentMax=0;resizeLast=0;collapsible=1;marginBottom=0;strokeColor=#000000;strokeWidth=1;fillColor=none;fontColor=#666666;" parent="qjxAAcyEWRl83YmCa2ei-1" vertex="1">
          <mxGeometry x="1410" y="276" width="160" height="190" as="geometry" />
        </mxCell>
        <mxCell id="qjxAAcyEWRl83YmCa2ei-12" value="+ content : string&#xa;+ post_id : int&#xa;+ reply_id : int&#xa;+ user_id : string&#xa;+ create_time : date" style="text;strokeColor=none;fillColor=none;align=left;verticalAlign=top;spacingLeft=4;spacingRight=4;overflow=hidden;rotatable=0;points=[[0,0.5],[1,0.5]];portConstraint=eastwest;fontColor=#666666;" parent="qjxAAcyEWRl83YmCa2ei-11" vertex="1">
          <mxGeometry y="26" width="160" height="84" as="geometry" />
        </mxCell>
        <mxCell id="qjxAAcyEWRl83YmCa2ei-13" value="" style="line;strokeWidth=1;fillColor=none;align=left;verticalAlign=middle;spacingTop=-1;spacingLeft=3;spacingRight=3;rotatable=0;labelPosition=right;points=[];portConstraint=eastwest;fontColor=#666666;" parent="qjxAAcyEWRl83YmCa2ei-11" vertex="1">
          <mxGeometry y="110" width="160" height="8" as="geometry" />
        </mxCell>
        <mxCell id="qjxAAcyEWRl83YmCa2ei-14" value="+ addReply()&#xa;+ deleteReply()&#xa;+ getReplyById()&#xa;+ getReplyList()" style="text;strokeColor=none;fillColor=none;align=left;verticalAlign=top;spacingLeft=4;spacingRight=4;overflow=hidden;rotatable=0;points=[[0,0.5],[1,0.5]];portConstraint=eastwest;fontColor=#666666;" parent="qjxAAcyEWRl83YmCa2ei-11" vertex="1">
          <mxGeometry y="118" width="160" height="72" as="geometry" />
        </mxCell>
        <mxCell id="-IS74bzMe0KfT2olL1K--2" style="edgeStyle=orthogonalEdgeStyle;rounded=0;orthogonalLoop=1;jettySize=auto;html=1;exitX=1;exitY=0.5;exitDx=0;exitDy=0;entryX=1;entryY=0.717;entryDx=0;entryDy=0;entryPerimeter=0;dashed=1;startSize=12;endArrow=none;endFill=0;endSize=12;fontColor=#666666;" edge="1" parent="qjxAAcyEWRl83YmCa2ei-1" source="qjxAAcyEWRl83YmCa2ei-15" target="qjxAAcyEWRl83YmCa2ei-20">
          <mxGeometry relative="1" as="geometry">
            <Array as="points">
              <mxPoint x="1650" y="557" />
              <mxPoint x="1650" y="142" />
            </Array>
          </mxGeometry>
        </mxCell>
        <mxCell id="qjxAAcyEWRl83YmCa2ei-15" value="CMS" style="swimlane;fontStyle=1;align=center;verticalAlign=top;childLayout=stackLayout;horizontal=1;startSize=26;horizontalStack=0;resizeParent=1;resizeParentMax=0;resizeLast=0;collapsible=1;marginBottom=0;strokeColor=#000000;strokeWidth=1;fillColor=none;fontColor=#666666;" parent="qjxAAcyEWRl83YmCa2ei-1" vertex="1">
          <mxGeometry x="1410" y="494" width="160" height="130" as="geometry" />
        </mxCell>
        <mxCell id="qjxAAcyEWRl83YmCa2ei-16" value="+ title : string&#xa;+ content : string&#xa;+ type : int&#xa;+ createTime : date" style="text;strokeColor=#000000;fillColor=none;align=left;verticalAlign=top;spacingLeft=4;spacingRight=4;overflow=hidden;rotatable=0;points=[[0,0.5],[1,0.5]];portConstraint=eastwest;strokeWidth=1;fontColor=#666666;" parent="qjxAAcyEWRl83YmCa2ei-15" vertex="1">
          <mxGeometry y="26" width="160" height="64" as="geometry" />
        </mxCell>
        <mxCell id="qjxAAcyEWRl83YmCa2ei-18" value="+ getCmsById()&#xa;+ getCmsList()" style="text;strokeColor=none;fillColor=none;align=left;verticalAlign=top;spacingLeft=4;spacingRight=4;overflow=hidden;rotatable=0;points=[[0,0.5],[1,0.5]];portConstraint=eastwest;fontColor=#666666;" parent="qjxAAcyEWRl83YmCa2ei-15" vertex="1">
          <mxGeometry y="90" width="160" height="40" as="geometry" />
        </mxCell>
        <mxCell id="qjxAAcyEWRl83YmCa2ei-19" value="Post 帖子" style="swimlane;fontStyle=1;align=center;verticalAlign=top;childLayout=stackLayout;horizontal=1;startSize=26;horizontalStack=0;resizeParent=1;resizeParentMax=0;resizeLast=0;collapsible=1;marginBottom=0;strokeColor=#000000;strokeWidth=1;fillColor=none;fontColor=#666666;" parent="qjxAAcyEWRl83YmCa2ei-1" vertex="1">
          <mxGeometry x="1410" y="40" width="160" height="220" as="geometry" />
        </mxCell>
        <mxCell id="qjxAAcyEWRl83YmCa2ei-20" value="+ title: string&#xa;+ content: string&#xa;+ category: string&#xa;+ userId: int&#xa;+ view_num&#xa;+ re_num&#xa;+ createTime: datetime" style="text;strokeColor=none;fillColor=none;align=left;verticalAlign=top;spacingLeft=4;spacingRight=4;overflow=hidden;rotatable=0;points=[[0,0.5],[1,0.5]];portConstraint=eastwest;fontColor=#666666;" parent="qjxAAcyEWRl83YmCa2ei-19" vertex="1">
          <mxGeometry y="26" width="160" height="104" as="geometry" />
        </mxCell>
        <mxCell id="qjxAAcyEWRl83YmCa2ei-21" value="" style="line;strokeWidth=1;fillColor=none;align=left;verticalAlign=middle;spacingTop=-1;spacingLeft=3;spacingRight=3;rotatable=0;labelPosition=right;points=[];portConstraint=eastwest;fontColor=#666666;" parent="qjxAAcyEWRl83YmCa2ei-19" vertex="1">
          <mxGeometry y="130" width="160" height="8" as="geometry" />
        </mxCell>
        <mxCell id="qjxAAcyEWRl83YmCa2ei-22" value="+ addPost()&#xa;+ editPost()&#xa;+ deletePost()&#xa;+ getPostById()&#xa;+ getPostList()" style="text;strokeColor=none;fillColor=none;align=left;verticalAlign=top;spacingLeft=4;spacingRight=4;overflow=hidden;rotatable=0;points=[[0,0.5],[1,0.5]];portConstraint=eastwest;whiteSpace=wrap;fontColor=#666666;" parent="qjxAAcyEWRl83YmCa2ei-19" vertex="1">
          <mxGeometry y="138" width="160" height="82" as="geometry" />
        </mxCell>
        <mxCell id="S7wsksWNyNUQsXFqVPr1-3" style="edgeStyle=orthogonalEdgeStyle;rounded=0;orthogonalLoop=1;jettySize=auto;html=1;exitX=0.5;exitY=0;exitDx=0;exitDy=0;entryX=0.5;entryY=1;entryDx=0;entryDy=0;startArrow=none;startFill=0;startSize=12;endArrow=diamondThin;endFill=0;endSize=12;fontColor=#666666;" edge="1" parent="qjxAAcyEWRl83YmCa2ei-1" source="qjxAAcyEWRl83YmCa2ei-24" target="qjxAAcyEWRl83YmCa2ei-7">
          <mxGeometry relative="1" as="geometry">
            <Array as="points">
              <mxPoint x="765" y="580" />
              <mxPoint x="994" y="580" />
            </Array>
          </mxGeometry>
        </mxCell>
        <mxCell id="qjxAAcyEWRl83YmCa2ei-24" value="文本声量检测" style="swimlane;fontStyle=1;align=center;verticalAlign=top;childLayout=stackLayout;horizontal=1;startSize=26;horizontalStack=0;resizeParent=1;resizeParentMax=0;resizeLast=0;collapsible=1;marginBottom=0;strokeColor=#000000;strokeWidth=1;fillColor=none;fontColor=#666666;" parent="qjxAAcyEWRl83YmCa2ei-1" vertex="1">
          <mxGeometry x="680" y="630" width="170" height="190" as="geometry" />
        </mxCell>
        <mxCell id="qjxAAcyEWRl83YmCa2ei-25" value="+ content : sting&#xa;+ userId : int&#xa;+ type : int&#xa;+ contentId : int&#xa;+ keywords: array" style="text;strokeColor=none;fillColor=none;align=left;verticalAlign=top;spacingLeft=4;spacingRight=4;overflow=hidden;rotatable=0;points=[[0,0.5],[1,0.5]];portConstraint=eastwest;fontColor=#666666;" parent="qjxAAcyEWRl83YmCa2ei-24" vertex="1">
          <mxGeometry y="26" width="170" height="84" as="geometry" />
        </mxCell>
        <mxCell id="qjxAAcyEWRl83YmCa2ei-26" value="" style="line;strokeWidth=1;fillColor=none;align=left;verticalAlign=middle;spacingTop=-1;spacingLeft=3;spacingRight=3;rotatable=0;labelPosition=right;points=[];portConstraint=eastwest;fontColor=#666666;" parent="qjxAAcyEWRl83YmCa2ei-24" vertex="1">
          <mxGeometry y="110" width="170" height="8" as="geometry" />
        </mxCell>
        <mxCell id="qjxAAcyEWRl83YmCa2ei-27" value="+ verifyContent()&#xa;+ getKeyWords()&#xa;+ analysConByKeywords()&#xa;+ saveConInfoWithKeyword()" style="text;strokeColor=none;fillColor=none;align=left;verticalAlign=top;spacingLeft=4;spacingRight=4;overflow=hidden;rotatable=0;points=[[0,0.5],[1,0.5]];portConstraint=eastwest;fontColor=#666666;" parent="qjxAAcyEWRl83YmCa2ei-24" vertex="1">
          <mxGeometry y="118" width="170" height="72" as="geometry" />
        </mxCell>
        <mxCell id="S7wsksWNyNUQsXFqVPr1-2" style="edgeStyle=orthogonalEdgeStyle;rounded=0;orthogonalLoop=1;jettySize=auto;html=1;exitX=0.5;exitY=0;exitDx=0;exitDy=0;entryX=0.5;entryY=0;entryDx=0;entryDy=0;startArrow=none;startFill=0;startSize=12;endArrow=none;endFill=0;endSize=12;fontColor=#666666;" edge="1" parent="qjxAAcyEWRl83YmCa2ei-1" source="qjxAAcyEWRl83YmCa2ei-29" target="qjxAAcyEWRl83YmCa2ei-33">
          <mxGeometry relative="1" as="geometry">
            <Array as="points">
              <mxPoint x="460" y="580" />
              <mxPoint x="1100" y="580" />
            </Array>
          </mxGeometry>
        </mxCell>
        <mxCell id="qjxAAcyEWRl83YmCa2ei-29" value="关键词库管理" style="swimlane;fontStyle=1;align=center;verticalAlign=top;childLayout=stackLayout;horizontal=1;startSize=26;horizontalStack=0;resizeParent=1;resizeParentMax=0;resizeLast=0;collapsible=1;marginBottom=0;strokeColor=#000000;strokeWidth=1;fillColor=none;fontColor=#666666;" parent="qjxAAcyEWRl83YmCa2ei-1" vertex="1">
          <mxGeometry x="360" y="630" width="200" height="210" as="geometry" />
        </mxCell>
        <mxCell id="qjxAAcyEWRl83YmCa2ei-30" value="+ receivePolicy: int&#xa;+ serverUrl : string&#xa;+ intervalTime: int&#xa;+ lastTime : date&#xa;" style="text;strokeColor=none;fillColor=none;align=left;verticalAlign=top;spacingLeft=4;spacingRight=4;overflow=hidden;rotatable=0;points=[[0,0.5],[1,0.5]];portConstraint=eastwest;fontColor=#666666;" parent="qjxAAcyEWRl83YmCa2ei-29" vertex="1">
          <mxGeometry y="26" width="200" height="74" as="geometry" />
        </mxCell>
        <mxCell id="qjxAAcyEWRl83YmCa2ei-31" value="" style="line;strokeWidth=1;fillColor=none;align=left;verticalAlign=middle;spacingTop=-1;spacingLeft=3;spacingRight=3;rotatable=0;labelPosition=right;points=[];portConstraint=eastwest;fontColor=#666666;" parent="qjxAAcyEWRl83YmCa2ei-29" vertex="1">
          <mxGeometry y="100" width="200" height="8" as="geometry" />
        </mxCell>
        <mxCell id="qjxAAcyEWRl83YmCa2ei-32" value="+ initKeyWord()&#xa;+ getKeyWordFromCache()&#xa;+ getKeyWordFromServer()&#xa;+ verifyKeyWord()&#xa;+ saveKeyWord()&#xa;+ deleteKeyWord()" style="text;strokeColor=none;fillColor=none;align=left;verticalAlign=top;spacingLeft=4;spacingRight=4;overflow=hidden;rotatable=0;points=[[0,0.5],[1,0.5]];portConstraint=eastwest;fontColor=#666666;" parent="qjxAAcyEWRl83YmCa2ei-29" vertex="1">
          <mxGeometry y="108" width="200" height="102" as="geometry" />
        </mxCell>
        <mxCell id="qjxAAcyEWRl83YmCa2ei-33" value="声量数据管理" style="swimlane;fontStyle=1;align=center;verticalAlign=top;childLayout=stackLayout;horizontal=1;startSize=26;horizontalStack=0;resizeParent=1;resizeParentMax=0;resizeLast=0;collapsible=1;marginBottom=0;strokeColor=#000000;strokeWidth=1;fillColor=none;fontColor=#666666;" parent="qjxAAcyEWRl83YmCa2ei-1" vertex="1">
          <mxGeometry x="1010" y="650" width="180" height="210" as="geometry" />
        </mxCell>
        <mxCell id="qjxAAcyEWRl83YmCa2ei-34" value="+ keyWordId: int&#xa;+ contentId : int&#xa;+ createTime : date&#xa;+ currentNum : int&#xa;&#xa;&#xa;" style="text;strokeColor=none;fillColor=none;align=left;verticalAlign=top;spacingLeft=4;spacingRight=4;overflow=hidden;rotatable=0;points=[[0,0.5],[1,0.5]];portConstraint=eastwest;fontColor=#666666;" parent="qjxAAcyEWRl83YmCa2ei-33" vertex="1">
          <mxGeometry y="26" width="180" height="64" as="geometry" />
        </mxCell>
        <mxCell id="qjxAAcyEWRl83YmCa2ei-35" value="" style="line;strokeWidth=1;fillColor=none;align=left;verticalAlign=middle;spacingTop=-1;spacingLeft=3;spacingRight=3;rotatable=0;labelPosition=right;points=[];portConstraint=eastwest;fontColor=#666666;" parent="qjxAAcyEWRl83YmCa2ei-33" vertex="1">
          <mxGeometry y="90" width="180" height="8" as="geometry" />
        </mxCell>
        <mxCell id="qjxAAcyEWRl83YmCa2ei-36" value="+ addVolumeData()&#xa;+ editVolumeData()&#xa;+ deleteVolumeData()&#xa;+ getVolumeDataByWordId()&#xa;+ getVolumeDataByContentId()&#xa;+ getVolumeDataList()&#xa;+ getCurrentDataNum()" style="text;strokeColor=none;fillColor=none;align=left;verticalAlign=top;spacingLeft=4;spacingRight=4;overflow=hidden;rotatable=0;points=[[0,0.5],[1,0.5]];portConstraint=eastwest;fontColor=#666666;" parent="qjxAAcyEWRl83YmCa2ei-33" vertex="1">
          <mxGeometry y="98" width="180" height="112" as="geometry" />
        </mxCell>
        <mxCell id="qjxAAcyEWRl83YmCa2ei-37" value="Cache 缓存管理" style="swimlane;fontStyle=1;align=center;verticalAlign=top;childLayout=stackLayout;horizontal=1;startSize=26;horizontalStack=0;resizeParent=1;resizeParentMax=0;resizeLast=0;collapsible=1;marginBottom=0;strokeColor=#000000;strokeWidth=1;fillColor=none;fontColor=#666666;" parent="qjxAAcyEWRl83YmCa2ei-1" vertex="1">
          <mxGeometry x="610" y="950" width="170" height="230" as="geometry" />
        </mxCell>
        <mxCell id="qjxAAcyEWRl83YmCa2ei-38" value="+ cacheType: int&#xa;+ cachePath :int&#xa;+ cacheSize: int&#xa;+ expireTime : int" style="text;strokeColor=none;fillColor=none;align=left;verticalAlign=top;spacingLeft=4;spacingRight=4;overflow=hidden;rotatable=0;points=[[0,0.5],[1,0.5]];portConstraint=eastwest;fontColor=#666666;" parent="qjxAAcyEWRl83YmCa2ei-37" vertex="1">
          <mxGeometry y="26" width="170" height="64" as="geometry" />
        </mxCell>
        <mxCell id="qjxAAcyEWRl83YmCa2ei-39" value="" style="line;strokeWidth=1;fillColor=none;align=left;verticalAlign=middle;spacingTop=-1;spacingLeft=3;spacingRight=3;rotatable=0;labelPosition=right;points=[];portConstraint=eastwest;fontColor=#666666;" parent="qjxAAcyEWRl83YmCa2ei-37" vertex="1">
          <mxGeometry y="90" width="170" height="8" as="geometry" />
        </mxCell>
        <mxCell id="qjxAAcyEWRl83YmCa2ei-40" value="+ getCacheData()&#xa;+ addCacheData()&#xa;+ deleteCacheData()&#xa;+ editCacheData()&#xa;+ asynGetCacheData()&#xa;+ asynAddCacheData()&#xa;+ asynDeleteCacheData()&#xa;+ asynEditCacheData()&#xa;" style="text;strokeColor=none;fillColor=none;align=left;verticalAlign=top;spacingLeft=4;spacingRight=4;overflow=hidden;rotatable=0;points=[[0,0.5],[1,0.5]];portConstraint=eastwest;fontColor=#666666;" parent="qjxAAcyEWRl83YmCa2ei-37" vertex="1">
          <mxGeometry y="98" width="170" height="132" as="geometry" />
        </mxCell>
        <mxCell id="mBGydHd7VZCgkBZUeQi_-10" style="edgeStyle=orthogonalEdgeStyle;rounded=0;comic=0;jumpStyle=none;orthogonalLoop=1;jettySize=auto;html=1;exitX=0.5;exitY=0;exitDx=0;exitDy=0;entryX=0.5;entryY=1;entryDx=0;entryDy=0;entryPerimeter=0;shadow=0;startArrow=diamondThin;startFill=0;startSize=12;endArrow=none;endFill=0;endSize=12;strokeColor=#000000;strokeWidth=1;fillColor=#FFFFFF;fontColor=#666666;" parent="qjxAAcyEWRl83YmCa2ei-1" source="qjxAAcyEWRl83YmCa2ei-61" target="qjxAAcyEWRl83YmCa2ei-36" edge="1">
          <mxGeometry relative="1" as="geometry" />
        </mxCell>
        <mxCell id="qjxAAcyEWRl83YmCa2ei-61" value="VolPackage 声量数据包" style="swimlane;fontStyle=1;align=center;verticalAlign=top;childLayout=stackLayout;horizontal=1;startSize=26;horizontalStack=0;resizeParent=1;resizeParentMax=0;resizeLast=0;collapsible=1;marginBottom=0;strokeColor=#000000;strokeWidth=1;fillColor=none;fontColor=#666666;" parent="qjxAAcyEWRl83YmCa2ei-1" vertex="1">
          <mxGeometry x="1015" y="960" width="170" height="180" as="geometry" />
        </mxCell>
        <mxCell id="qjxAAcyEWRl83YmCa2ei-62" value="+ reportPolicy: int&#xa;+ serverUrl : string&#xa;+ intervalTime : int&#xa;+ lastTime : date" style="text;strokeColor=none;fillColor=none;align=left;verticalAlign=top;spacingLeft=4;spacingRight=4;overflow=hidden;rotatable=0;points=[[0,0.5],[1,0.5]];portConstraint=eastwest;fontColor=#666666;" parent="qjxAAcyEWRl83YmCa2ei-61" vertex="1">
          <mxGeometry y="26" width="170" height="74" as="geometry" />
        </mxCell>
        <mxCell id="qjxAAcyEWRl83YmCa2ei-63" value="" style="line;strokeWidth=1;fillColor=none;align=left;verticalAlign=middle;spacingTop=-1;spacingLeft=3;spacingRight=3;rotatable=0;labelPosition=right;points=[];portConstraint=eastwest;fontColor=#666666;" parent="qjxAAcyEWRl83YmCa2ei-61" vertex="1">
          <mxGeometry y="100" width="170" height="8" as="geometry" />
        </mxCell>
        <mxCell id="qjxAAcyEWRl83YmCa2ei-64" value="+ createPackage()&#xa;+ postPackage()&#xa;+ deletePackage()" style="text;strokeColor=none;fillColor=none;align=left;verticalAlign=top;spacingLeft=4;spacingRight=4;overflow=hidden;rotatable=0;points=[[0,0.5],[1,0.5]];portConstraint=eastwest;fontColor=#666666;" parent="qjxAAcyEWRl83YmCa2ei-61" vertex="1">
          <mxGeometry y="108" width="170" height="72" as="geometry" />
        </mxCell>
        <mxCell id="qjxAAcyEWRl83YmCa2ei-45" value="User 用户" style="swimlane;fontStyle=1;align=center;verticalAlign=top;childLayout=stackLayout;horizontal=1;startSize=26;horizontalStack=0;resizeParent=1;resizeParentMax=0;resizeLast=0;collapsible=1;marginBottom=0;strokeColor=#000000;strokeWidth=1;fillColor=none;fontColor=#666666;" parent="qjxAAcyEWRl83YmCa2ei-1" vertex="1">
          <mxGeometry x="1790" y="256" width="190" height="220" as="geometry" />
        </mxCell>
        <mxCell id="qjxAAcyEWRl83YmCa2ei-46" value="+ user_id : string&#xa;+ nickname : string&#xa;+ avatar : string&#xa;+ status : int&#xa;+ birthday : date&#xa;+ gender : int&#xa;+ baby_gender : int&#xa;+ created_time : date" style="text;strokeColor=none;fillColor=none;align=left;verticalAlign=top;spacingLeft=4;spacingRight=4;overflow=hidden;rotatable=0;points=[[0,0.5],[1,0.5]];portConstraint=eastwest;fontColor=#666666;" parent="qjxAAcyEWRl83YmCa2ei-45" vertex="1">
          <mxGeometry y="26" width="190" height="124" as="geometry" />
        </mxCell>
        <mxCell id="qjxAAcyEWRl83YmCa2ei-47" value="" style="line;strokeWidth=1;fillColor=none;align=left;verticalAlign=middle;spacingTop=-1;spacingLeft=3;spacingRight=3;rotatable=0;labelPosition=right;points=[];portConstraint=eastwest;fontColor=#666666;" parent="qjxAAcyEWRl83YmCa2ei-45" vertex="1">
          <mxGeometry y="150" width="190" height="8" as="geometry" />
        </mxCell>
        <mxCell id="qjxAAcyEWRl83YmCa2ei-48" value="+ initInfo()&#xa;+ updateInfo()&#xa;+ destroyInfo()&#xa;" style="text;strokeColor=none;fillColor=none;align=left;verticalAlign=top;spacingLeft=4;spacingRight=4;overflow=hidden;rotatable=0;points=[[0,0.5],[1,0.5]];portConstraint=eastwest;fontColor=#666666;" parent="qjxAAcyEWRl83YmCa2ei-45" vertex="1">
          <mxGeometry y="158" width="190" height="62" as="geometry" />
        </mxCell>
        <mxCell id="qjxAAcyEWRl83YmCa2ei-49" value="获取规则" style="swimlane;fontStyle=1;align=center;verticalAlign=top;childLayout=stackLayout;horizontal=1;startSize=26;horizontalStack=0;resizeParent=1;resizeParentMax=0;resizeLast=0;collapsible=1;marginBottom=0;strokeColor=#000000;strokeWidth=1;fillColor=none;fontColor=#666666;" parent="qjxAAcyEWRl83YmCa2ei-1" vertex="1">
          <mxGeometry x="552.5" y="230" width="160" height="90" as="geometry" />
        </mxCell>
        <mxCell id="qjxAAcyEWRl83YmCa2ei-50" value="+ background : int" style="text;strokeColor=none;fillColor=none;align=left;verticalAlign=top;spacingLeft=4;spacingRight=4;overflow=hidden;rotatable=0;points=[[0,0.5],[1,0.5]];portConstraint=eastwest;fontColor=#666666;" parent="qjxAAcyEWRl83YmCa2ei-49" vertex="1">
          <mxGeometry y="26" width="160" height="24" as="geometry" />
        </mxCell>
        <mxCell id="qjxAAcyEWRl83YmCa2ei-51" value="" style="line;strokeWidth=1;fillColor=none;align=left;verticalAlign=middle;spacingTop=-1;spacingLeft=3;spacingRight=3;rotatable=0;labelPosition=right;points=[];portConstraint=eastwest;fontColor=#666666;" parent="qjxAAcyEWRl83YmCa2ei-49" vertex="1">
          <mxGeometry y="50" width="160" height="8" as="geometry" />
        </mxCell>
        <mxCell id="qjxAAcyEWRl83YmCa2ei-52" value="+ initReceiveRule()" style="text;strokeColor=none;fillColor=none;align=left;verticalAlign=top;spacingLeft=4;spacingRight=4;overflow=hidden;rotatable=0;points=[[0,0.5],[1,0.5]];portConstraint=eastwest;fontColor=#666666;" parent="qjxAAcyEWRl83YmCa2ei-49" vertex="1">
          <mxGeometry y="58" width="160" height="32" as="geometry" />
        </mxCell>
        <mxCell id="qjxAAcyEWRl83YmCa2ei-53" value="发送规则" style="swimlane;fontStyle=1;align=center;verticalAlign=top;childLayout=stackLayout;horizontal=1;startSize=26;horizontalStack=0;resizeParent=1;resizeParentMax=0;resizeLast=0;collapsible=1;marginBottom=0;strokeColor=#000000;strokeWidth=1;fillColor=none;fontColor=#666666;" parent="qjxAAcyEWRl83YmCa2ei-1" vertex="1">
          <mxGeometry x="552.5" y="399" width="160" height="86" as="geometry" />
        </mxCell>
        <mxCell id="qjxAAcyEWRl83YmCa2ei-54" value="+ smartPolicy : Int" style="text;strokeColor=none;fillColor=none;align=left;verticalAlign=top;spacingLeft=4;spacingRight=4;overflow=hidden;rotatable=0;points=[[0,0.5],[1,0.5]];portConstraint=eastwest;fontColor=#666666;" parent="qjxAAcyEWRl83YmCa2ei-53" vertex="1">
          <mxGeometry y="26" width="160" height="26" as="geometry" />
        </mxCell>
        <mxCell id="qjxAAcyEWRl83YmCa2ei-55" value="" style="line;strokeWidth=1;fillColor=none;align=left;verticalAlign=middle;spacingTop=-1;spacingLeft=3;spacingRight=3;rotatable=0;labelPosition=right;points=[];portConstraint=eastwest;fontColor=#666666;" parent="qjxAAcyEWRl83YmCa2ei-53" vertex="1">
          <mxGeometry y="52" width="160" height="8" as="geometry" />
        </mxCell>
        <mxCell id="qjxAAcyEWRl83YmCa2ei-56" value="+ initReportRule()" style="text;strokeColor=none;fillColor=none;align=left;verticalAlign=top;spacingLeft=4;spacingRight=4;overflow=hidden;rotatable=0;points=[[0,0.5],[1,0.5]];portConstraint=eastwest;fontColor=#666666;" parent="qjxAAcyEWRl83YmCa2ei-53" vertex="1">
          <mxGeometry y="60" width="160" height="26" as="geometry" />
        </mxCell>
        <mxCell id="qjxAAcyEWRl83YmCa2ei-57" value="规则" style="swimlane;fontStyle=1;align=center;verticalAlign=top;childLayout=stackLayout;horizontal=1;startSize=26;horizontalStack=0;resizeParent=1;resizeParentMax=0;resizeLast=0;collapsible=1;marginBottom=0;strokeColor=#000000;strokeWidth=1;fillColor=none;fontColor=#666666;" parent="qjxAAcyEWRl83YmCa2ei-1" vertex="1">
          <mxGeometry x="302.5" y="284" width="180" height="120" as="geometry" />
        </mxCell>
        <mxCell id="qjxAAcyEWRl83YmCa2ei-58" value="+ realtime: Int&#xa;+ batch: Int&#xa;+ interval: Int" style="text;strokeColor=none;fillColor=none;align=left;verticalAlign=top;spacingLeft=4;spacingRight=4;overflow=hidden;rotatable=0;points=[[0,0.5],[1,0.5]];portConstraint=eastwest;fontColor=#666666;" parent="qjxAAcyEWRl83YmCa2ei-57" vertex="1">
          <mxGeometry y="26" width="180" height="54" as="geometry" />
        </mxCell>
        <mxCell id="qjxAAcyEWRl83YmCa2ei-59" value="" style="line;strokeWidth=1;fillColor=none;align=left;verticalAlign=middle;spacingTop=-1;spacingLeft=3;spacingRight=3;rotatable=0;labelPosition=right;points=[];portConstraint=eastwest;fontColor=#666666;" parent="qjxAAcyEWRl83YmCa2ei-57" vertex="1">
          <mxGeometry y="80" width="180" height="8" as="geometry" />
        </mxCell>
        <mxCell id="qjxAAcyEWRl83YmCa2ei-60" value="+ initRule()" style="text;strokeColor=none;fillColor=none;align=left;verticalAlign=top;spacingLeft=4;spacingRight=4;overflow=hidden;rotatable=0;points=[[0,0.5],[1,0.5]];portConstraint=eastwest;fontColor=#666666;" parent="qjxAAcyEWRl83YmCa2ei-57" vertex="1">
          <mxGeometry y="88" width="180" height="32" as="geometry" />
        </mxCell>
        <mxCell id="uz-evhgLQAdSikHZzWyA-0" style="edgeStyle=orthogonalEdgeStyle;rounded=0;comic=0;jumpStyle=none;orthogonalLoop=1;jettySize=auto;html=1;exitX=0;exitY=0.5;exitDx=0;exitDy=0;shadow=0;startArrow=none;startFill=0;startSize=12;endArrow=block;endFill=0;endSize=12;strokeColor=#000000;strokeWidth=1;fillColor=#FFFFFF;fontColor=#666666;" parent="qjxAAcyEWRl83YmCa2ei-1" source="qjxAAcyEWRl83YmCa2ei-50" target="qjxAAcyEWRl83YmCa2ei-58" edge="1">
          <mxGeometry relative="1" as="geometry" />
        </mxCell>
        <mxCell id="uz-evhgLQAdSikHZzWyA-1" style="edgeStyle=orthogonalEdgeStyle;rounded=0;comic=0;jumpStyle=none;orthogonalLoop=1;jettySize=auto;html=1;exitX=0;exitY=0.5;exitDx=0;exitDy=0;entryX=1;entryY=0.5;entryDx=0;entryDy=0;shadow=0;startArrow=none;startFill=0;startSize=12;endArrow=block;endFill=0;endSize=12;strokeColor=#000000;strokeWidth=1;fillColor=#FFFFFF;fontColor=#666666;" parent="qjxAAcyEWRl83YmCa2ei-1" source="qjxAAcyEWRl83YmCa2ei-54" target="qjxAAcyEWRl83YmCa2ei-58" edge="1">
          <mxGeometry relative="1" as="geometry" />
        </mxCell>
        <mxCell id="mBGydHd7VZCgkBZUeQi_-2" style="edgeStyle=orthogonalEdgeStyle;rounded=0;comic=0;jumpStyle=none;orthogonalLoop=1;jettySize=auto;html=1;exitX=0;exitY=0.5;exitDx=0;exitDy=0;shadow=0;startArrow=none;startFill=0;startSize=12;endArrow=none;endFill=0;endSize=12;strokeColor=#000000;strokeWidth=1;fillColor=#FFFFFF;fontColor=#666666;" parent="qjxAAcyEWRl83YmCa2ei-1" source="qjxAAcyEWRl83YmCa2ei-20" target="qjxAAcyEWRl83YmCa2ei-16" edge="1">
          <mxGeometry relative="1" as="geometry">
            <Array as="points">
              <mxPoint x="1410" y="145" />
              <mxPoint x="1320" y="145" />
              <mxPoint x="1320" y="555" />
            </Array>
          </mxGeometry>
        </mxCell>
        <mxCell id="mBGydHd7VZCgkBZUeQi_-3" style="edgeStyle=orthogonalEdgeStyle;rounded=0;comic=0;jumpStyle=none;orthogonalLoop=1;jettySize=auto;html=1;exitX=0;exitY=0.5;exitDx=0;exitDy=0;entryX=0.997;entryY=0.431;entryDx=0;entryDy=0;entryPerimeter=0;shadow=0;startArrow=none;startFill=0;startSize=12;endArrow=open;endFill=0;endSize=12;strokeColor=#000000;strokeWidth=1;fillColor=#FFFFFF;fontColor=#666666;" parent="qjxAAcyEWRl83YmCa2ei-1" source="qjxAAcyEWRl83YmCa2ei-12" target="qjxAAcyEWRl83YmCa2ei-7" edge="1">
          <mxGeometry relative="1" as="geometry" />
        </mxCell>
        <mxCell id="mBGydHd7VZCgkBZUeQi_-6" style="edgeStyle=orthogonalEdgeStyle;rounded=0;comic=0;jumpStyle=none;orthogonalLoop=1;jettySize=auto;html=1;shadow=0;startArrow=none;startFill=0;startSize=12;endArrow=diamondThin;endFill=0;endSize=12;strokeColor=#000000;strokeWidth=1;fillColor=#FFFFFF;exitX=1;exitY=0.5;exitDx=0;exitDy=0;fontColor=#666666;" parent="qjxAAcyEWRl83YmCa2ei-1" source="qjxAAcyEWRl83YmCa2ei-54" target="qjxAAcyEWRl83YmCa2ei-7" edge="1">
          <mxGeometry relative="1" as="geometry" />
        </mxCell>
        <mxCell id="mBGydHd7VZCgkBZUeQi_-5" style="edgeStyle=orthogonalEdgeStyle;rounded=0;comic=0;jumpStyle=none;orthogonalLoop=1;jettySize=auto;html=1;exitX=1;exitY=0.5;exitDx=0;exitDy=0;entryX=0;entryY=0.5;entryDx=0;entryDy=0;shadow=0;startArrow=none;startFill=0;startSize=12;endArrow=diamondThin;endFill=0;endSize=12;strokeColor=#000000;strokeWidth=1;fillColor=#FFFFFF;fontColor=#666666;" parent="qjxAAcyEWRl83YmCa2ei-1" source="qjxAAcyEWRl83YmCa2ei-50" target="qjxAAcyEWRl83YmCa2ei-7" edge="1">
          <mxGeometry relative="1" as="geometry" />
        </mxCell>
        <mxCell id="mBGydHd7VZCgkBZUeQi_-7" style="edgeStyle=orthogonalEdgeStyle;rounded=0;comic=0;jumpStyle=none;orthogonalLoop=1;jettySize=auto;html=1;exitX=0.358;exitY=1.025;exitDx=0;exitDy=0;entryX=0.5;entryY=0;entryDx=0;entryDy=0;shadow=0;startArrow=none;startFill=0;startSize=12;endArrow=open;endFill=0;endSize=12;strokeColor=#000000;strokeWidth=1;fillColor=#FFFFFF;exitPerimeter=0;dashed=1;fontColor=#666666;" parent="qjxAAcyEWRl83YmCa2ei-1" source="qjxAAcyEWRl83YmCa2ei-32" target="qjxAAcyEWRl83YmCa2ei-37" edge="1">
          <mxGeometry relative="1" as="geometry">
            <Array as="points">
              <mxPoint x="432" y="890" />
              <mxPoint x="695" y="890" />
            </Array>
          </mxGeometry>
        </mxCell>
        <mxCell id="mBGydHd7VZCgkBZUeQi_-9" style="edgeStyle=orthogonalEdgeStyle;rounded=0;comic=0;jumpStyle=none;orthogonalLoop=1;jettySize=auto;html=1;entryX=0.5;entryY=0;entryDx=0;entryDy=0;shadow=0;dashed=1;startArrow=none;startFill=0;startSize=12;endArrow=open;endFill=0;endSize=12;strokeColor=#000000;strokeWidth=1;fillColor=#FFFFFF;exitX=0.128;exitY=0.997;exitDx=0;exitDy=0;exitPerimeter=0;fontColor=#666666;" parent="qjxAAcyEWRl83YmCa2ei-1" source="qjxAAcyEWRl83YmCa2ei-36" target="qjxAAcyEWRl83YmCa2ei-37" edge="1">
          <mxGeometry relative="1" as="geometry">
            <Array as="points">
              <mxPoint x="1040" y="860" />
              <mxPoint x="1040" y="890" />
              <mxPoint x="695" y="890" />
            </Array>
            <mxPoint x="1030" y="880" as="sourcePoint" />
          </mxGeometry>
        </mxCell>
        <mxCell id="-IS74bzMe0KfT2olL1K--0" style="edgeStyle=orthogonalEdgeStyle;rounded=0;orthogonalLoop=1;jettySize=auto;html=1;exitX=1;exitY=0.5;exitDx=0;exitDy=0;entryX=0;entryY=0.5;entryDx=0;entryDy=0;dashed=1;endArrow=open;endFill=0;endSize=12;startSize=12;fontColor=#666666;" edge="1" parent="qjxAAcyEWRl83YmCa2ei-1" source="qjxAAcyEWRl83YmCa2ei-12" target="qjxAAcyEWRl83YmCa2ei-46">
          <mxGeometry relative="1" as="geometry" />
        </mxCell>
        <mxCell id="-IS74bzMe0KfT2olL1K--4" style="rounded=0;orthogonalLoop=1;jettySize=auto;html=1;exitX=0;exitY=0.5;exitDx=0;exitDy=0;entryX=1.01;entryY=0.595;entryDx=0;entryDy=0;entryPerimeter=0;dashed=1;startSize=12;endArrow=open;endFill=0;endSize=12;fontColor=#666666;" edge="1" parent="qjxAAcyEWRl83YmCa2ei-1" source="qjxAAcyEWRl83YmCa2ei-25" target="qjxAAcyEWRl83YmCa2ei-30">
          <mxGeometry relative="1" as="geometry" />
        </mxCell>
        <mxCell id="-IS74bzMe0KfT2olL1K--9" style="edgeStyle=orthogonalEdgeStyle;rounded=0;orthogonalLoop=1;jettySize=auto;html=1;exitX=1;exitY=0.5;exitDx=0;exitDy=0;entryX=0;entryY=0.346;entryDx=0;entryDy=0;entryPerimeter=0;dashed=1;startArrow=none;startFill=0;startSize=12;endArrow=open;endFill=0;endSize=12;fontColor=#666666;" edge="1" parent="qjxAAcyEWRl83YmCa2ei-1" source="qjxAAcyEWRl83YmCa2ei-25" target="qjxAAcyEWRl83YmCa2ei-34">
          <mxGeometry relative="1" as="geometry" />
        </mxCell>
      </root>
    </mxGraphModel>
  </diagram>
  <diagram name="Page-5" id="s-xU2h6p84WyO56ERNky">
    <mxGraphModel dx="1558" dy="944" grid="1" gridSize="10" guides="1" tooltips="1" connect="1" arrows="1" fold="1" page="1" pageScale="1" pageWidth="2339" pageHeight="3300" math="0" shadow="0">
      <root>
        <mxCell id="HeV9HryJBeppdUbYYs_r-0" />
        <mxCell id="HeV9HryJBeppdUbYYs_r-1" parent="HeV9HryJBeppdUbYYs_r-0" />
        <mxCell id="t1sioDimK3isIwA9q6QR-0" value="User" style="shape=umlLifeline;perimeter=lifelinePerimeter;whiteSpace=wrap;html=1;container=1;collapsible=0;recursiveResize=0;outlineConnect=0;strokeColor=#000000;strokeWidth=1;fontColor=#666666;" vertex="1" parent="HeV9HryJBeppdUbYYs_r-1">
          <mxGeometry x="400" y="320" width="130" height="1400" as="geometry" />
        </mxCell>
        <mxCell id="t1sioDimK3isIwA9q6QR-12" value="" style="html=1;points=[];perimeter=orthogonalPerimeter;strokeColor=#000000;strokeWidth=1;fontColor=#666666;" vertex="1" parent="t1sioDimK3isIwA9q6QR-0">
          <mxGeometry x="60" y="60" width="10" height="80" as="geometry" />
        </mxCell>
        <mxCell id="t1sioDimK3isIwA9q6QR-52" value="" style="html=1;points=[];perimeter=orthogonalPerimeter;strokeColor=#000000;strokeWidth=1;fontColor=#666666;" vertex="1" parent="t1sioDimK3isIwA9q6QR-0">
          <mxGeometry x="60" y="628" width="10" height="80" as="geometry" />
        </mxCell>
        <mxCell id="t1sioDimK3isIwA9q6QR-79" value="" style="html=1;points=[];perimeter=orthogonalPerimeter;strokeColor=#000000;strokeWidth=1;fontColor=#666666;" vertex="1" parent="t1sioDimK3isIwA9q6QR-0">
          <mxGeometry x="60" y="1160" width="10" height="80" as="geometry" />
        </mxCell>
        <mxCell id="t1sioDimK3isIwA9q6QR-46" value="TextAnalysManager" style="shape=umlLifeline;perimeter=lifelinePerimeter;whiteSpace=wrap;html=1;container=1;collapsible=0;recursiveResize=0;outlineConnect=0;strokeColor=#000000;strokeWidth=1;fontColor=#666666;" vertex="1" parent="HeV9HryJBeppdUbYYs_r-1">
          <mxGeometry x="820" y="320" width="130" height="1400" as="geometry" />
        </mxCell>
        <mxCell id="t1sioDimK3isIwA9q6QR-54" value="" style="html=1;points=[];perimeter=orthogonalPerimeter;strokeColor=#000000;strokeWidth=1;fontColor=#666666;" vertex="1" parent="t1sioDimK3isIwA9q6QR-46">
          <mxGeometry x="60" y="650" width="10" height="160" as="geometry" />
        </mxCell>
        <mxCell id="t1sioDimK3isIwA9q6QR-63" value="" style="html=1;points=[];perimeter=orthogonalPerimeter;strokeColor=#000000;strokeWidth=1;fontColor=#666666;" vertex="1" parent="t1sioDimK3isIwA9q6QR-46">
          <mxGeometry x="70" y="748" width="10" height="30" as="geometry" />
        </mxCell>
        <mxCell id="t1sioDimK3isIwA9q6QR-64" value="分析文本声量数据" style="edgeStyle=orthogonalEdgeStyle;html=1;align=left;spacingLeft=2;endArrow=block;rounded=0;entryX=1;entryY=0;fontColor=#666666;" edge="1" target="t1sioDimK3isIwA9q6QR-63" parent="t1sioDimK3isIwA9q6QR-46">
          <mxGeometry relative="1" as="geometry">
            <mxPoint x="70" y="728" as="sourcePoint" />
            <Array as="points">
              <mxPoint x="100" y="728" />
            </Array>
          </mxGeometry>
        </mxCell>
        <mxCell id="t1sioDimK3isIwA9q6QR-2" value="VolumeSystem" style="shape=umlLifeline;perimeter=lifelinePerimeter;whiteSpace=wrap;html=1;container=1;collapsible=0;recursiveResize=0;outlineConnect=0;strokeColor=#000000;strokeWidth=1;fontColor=#666666;" vertex="1" parent="HeV9HryJBeppdUbYYs_r-1">
          <mxGeometry x="610" y="320" width="130" height="1400" as="geometry" />
        </mxCell>
        <mxCell id="t1sioDimK3isIwA9q6QR-13" value="" style="html=1;points=[];perimeter=orthogonalPerimeter;strokeColor=#000000;strokeWidth=1;fontColor=#666666;" vertex="1" parent="t1sioDimK3isIwA9q6QR-2">
          <mxGeometry x="60" y="60" width="10" height="1180" as="geometry" />
        </mxCell>
        <mxCell id="t1sioDimK3isIwA9q6QR-15" value="" style="html=1;points=[];perimeter=orthogonalPerimeter;strokeColor=#000000;strokeWidth=1;fontColor=#666666;" vertex="1" parent="t1sioDimK3isIwA9q6QR-2">
          <mxGeometry x="70" y="80" width="10" height="20" as="geometry" />
        </mxCell>
        <mxCell id="t1sioDimK3isIwA9q6QR-16" value="初始化配置" style="edgeStyle=orthogonalEdgeStyle;html=1;align=left;spacingLeft=2;endArrow=block;rounded=0;entryX=1;entryY=0;exitX=0.9;exitY=0;exitDx=0;exitDy=0;exitPerimeter=0;fontColor=#666666;" edge="1" target="t1sioDimK3isIwA9q6QR-15" parent="t1sioDimK3isIwA9q6QR-2" source="t1sioDimK3isIwA9q6QR-13">
          <mxGeometry relative="1" as="geometry">
            <mxPoint x="75" y="60" as="sourcePoint" />
            <Array as="points">
              <mxPoint x="100" y="60" />
              <mxPoint x="100" y="80" />
            </Array>
          </mxGeometry>
        </mxCell>
        <mxCell id="t1sioDimK3isIwA9q6QR-4" value="KeyWordManager" style="shape=umlLifeline;perimeter=lifelinePerimeter;whiteSpace=wrap;html=1;container=1;collapsible=0;recursiveResize=0;outlineConnect=0;strokeColor=#000000;strokeWidth=1;fontColor=#666666;" vertex="1" parent="HeV9HryJBeppdUbYYs_r-1">
          <mxGeometry x="1030" y="320" width="130" height="1400" as="geometry" />
        </mxCell>
        <mxCell id="t1sioDimK3isIwA9q6QR-17" value="" style="html=1;points=[];perimeter=orthogonalPerimeter;strokeColor=#000000;strokeWidth=1;fontColor=#666666;" vertex="1" parent="t1sioDimK3isIwA9q6QR-4">
          <mxGeometry x="60" y="116" width="10" height="174" as="geometry" />
        </mxCell>
        <mxCell id="t1sioDimK3isIwA9q6QR-57" value="" style="html=1;points=[];perimeter=orthogonalPerimeter;strokeColor=#000000;strokeWidth=1;fontColor=#666666;" vertex="1" parent="t1sioDimK3isIwA9q6QR-4">
          <mxGeometry x="60" y="670" width="10" height="40" as="geometry" />
        </mxCell>
        <mxCell id="t1sioDimK3isIwA9q6QR-6" value="VolumeDataManager" style="shape=umlLifeline;perimeter=lifelinePerimeter;whiteSpace=wrap;html=1;container=1;collapsible=0;recursiveResize=0;outlineConnect=0;strokeColor=#000000;strokeWidth=1;fontColor=#666666;" vertex="1" parent="HeV9HryJBeppdUbYYs_r-1">
          <mxGeometry x="1240" y="320" width="130" height="1400" as="geometry" />
        </mxCell>
        <mxCell id="t1sioDimK3isIwA9q6QR-29" value="" style="html=1;points=[];perimeter=orthogonalPerimeter;strokeColor=#000000;strokeWidth=1;fontColor=#666666;" vertex="1" parent="t1sioDimK3isIwA9q6QR-6">
          <mxGeometry x="60" y="340" width="10" height="220" as="geometry" />
        </mxCell>
        <mxCell id="t1sioDimK3isIwA9q6QR-32" value="" style="html=1;points=[];perimeter=orthogonalPerimeter;strokeColor=#000000;strokeWidth=1;fontColor=#666666;" vertex="1" parent="t1sioDimK3isIwA9q6QR-6">
          <mxGeometry x="70" y="360" width="10" height="20" as="geometry" />
        </mxCell>
        <mxCell id="t1sioDimK3isIwA9q6QR-33" value="获取当前声量数据数" style="edgeStyle=orthogonalEdgeStyle;html=1;align=left;spacingLeft=2;endArrow=block;rounded=0;entryX=1;entryY=0;exitX=1.017;exitY=-0.007;exitDx=0;exitDy=0;exitPerimeter=0;fontColor=#666666;" edge="1" target="t1sioDimK3isIwA9q6QR-32" parent="t1sioDimK3isIwA9q6QR-6" source="t1sioDimK3isIwA9q6QR-29">
          <mxGeometry relative="1" as="geometry">
            <mxPoint x="75" y="340" as="sourcePoint" />
            <Array as="points">
              <mxPoint x="100" y="340" />
              <mxPoint x="100" y="360" />
            </Array>
          </mxGeometry>
        </mxCell>
        <mxCell id="t1sioDimK3isIwA9q6QR-60" value="" style="html=1;points=[];perimeter=orthogonalPerimeter;strokeColor=#000000;strokeWidth=1;fontColor=#666666;" vertex="1" parent="t1sioDimK3isIwA9q6QR-6">
          <mxGeometry x="60" y="799" width="10" height="181" as="geometry" />
        </mxCell>
        <mxCell id="t1sioDimK3isIwA9q6QR-80" value="" style="html=1;points=[];perimeter=orthogonalPerimeter;strokeColor=#000000;strokeWidth=1;fontColor=#666666;" vertex="1" parent="t1sioDimK3isIwA9q6QR-6">
          <mxGeometry x="60" y="1180" width="10" height="100" as="geometry" />
        </mxCell>
        <mxCell id="t1sioDimK3isIwA9q6QR-8" value="Cache" style="shape=umlLifeline;perimeter=lifelinePerimeter;whiteSpace=wrap;html=1;container=1;collapsible=0;recursiveResize=0;outlineConnect=0;strokeColor=#000000;strokeWidth=1;fontColor=#666666;" vertex="1" parent="HeV9HryJBeppdUbYYs_r-1">
          <mxGeometry x="1450" y="320" width="130" height="1400" as="geometry" />
        </mxCell>
        <mxCell id="t1sioDimK3isIwA9q6QR-21" value="" style="html=1;points=[];perimeter=orthogonalPerimeter;strokeColor=#000000;strokeWidth=1;fontColor=#666666;" vertex="1" parent="t1sioDimK3isIwA9q6QR-8">
          <mxGeometry x="60" y="124" width="10" height="50" as="geometry" />
        </mxCell>
        <mxCell id="t1sioDimK3isIwA9q6QR-27" value="" style="html=1;points=[];perimeter=orthogonalPerimeter;strokeColor=#000000;strokeWidth=1;fontColor=#666666;" vertex="1" parent="t1sioDimK3isIwA9q6QR-8">
          <mxGeometry x="60" y="280" width="10" height="30" as="geometry" />
        </mxCell>
        <mxCell id="t1sioDimK3isIwA9q6QR-37" value="" style="html=1;points=[];perimeter=orthogonalPerimeter;strokeColor=#000000;strokeWidth=1;fontColor=#666666;" vertex="1" parent="t1sioDimK3isIwA9q6QR-8">
          <mxGeometry x="60" y="396" width="10" height="34" as="geometry" />
        </mxCell>
        <mxCell id="t1sioDimK3isIwA9q6QR-44" value="" style="html=1;points=[];perimeter=orthogonalPerimeter;strokeColor=#000000;strokeWidth=1;fontColor=#666666;" vertex="1" parent="t1sioDimK3isIwA9q6QR-8">
          <mxGeometry x="60" y="526" width="10" height="30" as="geometry" />
        </mxCell>
        <mxCell id="t1sioDimK3isIwA9q6QR-65" value="" style="html=1;points=[];perimeter=orthogonalPerimeter;strokeColor=#000000;strokeWidth=1;fontColor=#666666;" vertex="1" parent="t1sioDimK3isIwA9q6QR-8">
          <mxGeometry x="60" y="820" width="10" height="30" as="geometry" />
        </mxCell>
        <mxCell id="t1sioDimK3isIwA9q6QR-73" value="" style="html=1;points=[];perimeter=orthogonalPerimeter;strokeColor=#000000;strokeWidth=1;fontColor=#666666;" vertex="1" parent="t1sioDimK3isIwA9q6QR-8">
          <mxGeometry x="60" y="966" width="10" height="30" as="geometry" />
        </mxCell>
        <mxCell id="t1sioDimK3isIwA9q6QR-87" value="" style="html=1;points=[];perimeter=orthogonalPerimeter;strokeColor=#000000;strokeWidth=1;fontColor=#666666;" vertex="1" parent="t1sioDimK3isIwA9q6QR-8">
          <mxGeometry x="60" y="1255" width="10" height="20" as="geometry" />
        </mxCell>
        <mxCell id="t1sioDimK3isIwA9q6QR-10" value="Server" style="shape=umlLifeline;perimeter=lifelinePerimeter;whiteSpace=wrap;html=1;container=1;collapsible=0;recursiveResize=0;outlineConnect=0;strokeColor=#000000;strokeWidth=1;fontColor=#666666;" vertex="1" parent="HeV9HryJBeppdUbYYs_r-1">
          <mxGeometry x="1660" y="320" width="130" height="1400" as="geometry" />
        </mxCell>
        <mxCell id="t1sioDimK3isIwA9q6QR-24" value="" style="html=1;points=[];perimeter=orthogonalPerimeter;strokeColor=#000000;strokeWidth=1;fontColor=#666666;" vertex="1" parent="t1sioDimK3isIwA9q6QR-10">
          <mxGeometry x="60" y="200" width="10" height="50" as="geometry" />
        </mxCell>
        <mxCell id="t1sioDimK3isIwA9q6QR-41" value="" style="html=1;points=[];perimeter=orthogonalPerimeter;strokeColor=#000000;strokeWidth=1;fontColor=#666666;" vertex="1" parent="t1sioDimK3isIwA9q6QR-10">
          <mxGeometry x="60" y="460" width="10" height="40" as="geometry" />
        </mxCell>
        <mxCell id="t1sioDimK3isIwA9q6QR-70" value="" style="html=1;points=[];perimeter=orthogonalPerimeter;strokeColor=#000000;strokeWidth=1;fontColor=#666666;" vertex="1" parent="t1sioDimK3isIwA9q6QR-10">
          <mxGeometry x="60" y="895" width="10" height="40" as="geometry" />
        </mxCell>
        <mxCell id="t1sioDimK3isIwA9q6QR-84" value="" style="html=1;points=[];perimeter=orthogonalPerimeter;strokeColor=#000000;strokeWidth=1;fontColor=#666666;" vertex="1" parent="t1sioDimK3isIwA9q6QR-10">
          <mxGeometry x="60" y="1200" width="10" height="30" as="geometry" />
        </mxCell>
        <mxCell id="t1sioDimK3isIwA9q6QR-18" value="初始化关键词管理" style="html=1;verticalAlign=bottom;endArrow=block;fontColor=#666666;" edge="1" parent="HeV9HryJBeppdUbYYs_r-1">
          <mxGeometry width="80" relative="1" as="geometry">
            <mxPoint x="680" y="438" as="sourcePoint" />
            <mxPoint x="1090" y="438" as="targetPoint" />
          </mxGeometry>
        </mxCell>
        <mxCell id="t1sioDimK3isIwA9q6QR-22" value="初始化缓存声量关键词" style="html=1;verticalAlign=bottom;endArrow=block;entryX=0;entryY=0;fontColor=#666666;" edge="1" target="t1sioDimK3isIwA9q6QR-21" parent="HeV9HryJBeppdUbYYs_r-1">
          <mxGeometry relative="1" as="geometry">
            <mxPoint x="1103" y="444" as="sourcePoint" />
          </mxGeometry>
        </mxCell>
        <mxCell id="t1sioDimK3isIwA9q6QR-23" value="返回缓存关键词" style="html=1;verticalAlign=bottom;endArrow=open;dashed=1;endSize=8;exitX=0;exitY=0.95;fontColor=#666666;" edge="1" source="t1sioDimK3isIwA9q6QR-21" parent="HeV9HryJBeppdUbYYs_r-1">
          <mxGeometry relative="1" as="geometry">
            <mxPoint x="1100" y="492" as="targetPoint" />
          </mxGeometry>
        </mxCell>
        <mxCell id="t1sioDimK3isIwA9q6QR-25" value="获取服务器声量关键词" style="html=1;verticalAlign=bottom;endArrow=block;entryX=0;entryY=0;fontColor=#666666;" edge="1" target="t1sioDimK3isIwA9q6QR-24" parent="HeV9HryJBeppdUbYYs_r-1">
          <mxGeometry relative="1" as="geometry">
            <mxPoint x="1100" y="520" as="sourcePoint" />
          </mxGeometry>
        </mxCell>
        <mxCell id="t1sioDimK3isIwA9q6QR-26" value="返回服务器关键词" style="html=1;verticalAlign=bottom;endArrow=open;dashed=1;endSize=8;exitX=0;exitY=0.95;fontColor=#666666;" edge="1" source="t1sioDimK3isIwA9q6QR-24" parent="HeV9HryJBeppdUbYYs_r-1">
          <mxGeometry relative="1" as="geometry">
            <mxPoint x="1100" y="568" as="targetPoint" />
          </mxGeometry>
        </mxCell>
        <mxCell id="t1sioDimK3isIwA9q6QR-28" value="存储最新关键词" style="html=1;verticalAlign=bottom;endArrow=block;exitX=1.047;exitY=0.941;exitDx=0;exitDy=0;exitPerimeter=0;fontColor=#666666;" edge="1" parent="HeV9HryJBeppdUbYYs_r-1" source="t1sioDimK3isIwA9q6QR-17">
          <mxGeometry width="80" relative="1" as="geometry">
            <mxPoint x="1430" y="600" as="sourcePoint" />
            <mxPoint x="1510" y="600" as="targetPoint" />
          </mxGeometry>
        </mxCell>
        <mxCell id="t1sioDimK3isIwA9q6QR-31" value="初始化声量数据管理" style="html=1;verticalAlign=bottom;endArrow=block;fontColor=#666666;" edge="1" parent="HeV9HryJBeppdUbYYs_r-1">
          <mxGeometry width="80" relative="1" as="geometry">
            <mxPoint x="680" y="660" as="sourcePoint" />
            <mxPoint x="1300" y="660" as="targetPoint" />
          </mxGeometry>
        </mxCell>
        <mxCell id="t1sioDimK3isIwA9q6QR-38" value="获取声量数据" style="html=1;verticalAlign=bottom;endArrow=block;entryX=0;entryY=0;fontColor=#666666;" edge="1" target="t1sioDimK3isIwA9q6QR-37" parent="HeV9HryJBeppdUbYYs_r-1">
          <mxGeometry relative="1" as="geometry">
            <mxPoint x="1310" y="716" as="sourcePoint" />
          </mxGeometry>
        </mxCell>
        <mxCell id="t1sioDimK3isIwA9q6QR-39" value="返回声量数据" style="html=1;verticalAlign=bottom;endArrow=open;dashed=1;endSize=8;exitX=0;exitY=0.95;fontColor=#666666;" edge="1" source="t1sioDimK3isIwA9q6QR-37" parent="HeV9HryJBeppdUbYYs_r-1">
          <mxGeometry relative="1" as="geometry">
            <mxPoint x="1310" y="748" as="targetPoint" />
          </mxGeometry>
        </mxCell>
        <mxCell id="t1sioDimK3isIwA9q6QR-42" value="发送声量数据" style="html=1;verticalAlign=bottom;endArrow=block;entryX=0;entryY=0;fontColor=#666666;" edge="1" target="t1sioDimK3isIwA9q6QR-41" parent="HeV9HryJBeppdUbYYs_r-1">
          <mxGeometry relative="1" as="geometry">
            <mxPoint x="1310" y="780" as="sourcePoint" />
          </mxGeometry>
        </mxCell>
        <mxCell id="t1sioDimK3isIwA9q6QR-43" value="返回发送结果" style="html=1;verticalAlign=bottom;endArrow=open;dashed=1;endSize=8;exitX=0;exitY=0.95;fontColor=#666666;" edge="1" source="t1sioDimK3isIwA9q6QR-41" parent="HeV9HryJBeppdUbYYs_r-1">
          <mxGeometry relative="1" as="geometry">
            <mxPoint x="1310" y="818" as="targetPoint" />
          </mxGeometry>
        </mxCell>
        <mxCell id="t1sioDimK3isIwA9q6QR-45" value="删除声量缓存数据" style="html=1;verticalAlign=bottom;endArrow=block;fontColor=#666666;" edge="1" parent="HeV9HryJBeppdUbYYs_r-1">
          <mxGeometry width="80" relative="1" as="geometry">
            <mxPoint x="1310" y="848" as="sourcePoint" />
            <mxPoint x="1510" y="848" as="targetPoint" />
          </mxGeometry>
        </mxCell>
        <mxCell id="t1sioDimK3isIwA9q6QR-51" value="启动" style="html=1;verticalAlign=bottom;endArrow=block;fontColor=#666666;" edge="1" parent="HeV9HryJBeppdUbYYs_r-1" source="t1sioDimK3isIwA9q6QR-0">
          <mxGeometry width="80" relative="1" as="geometry">
            <mxPoint x="590" y="380" as="sourcePoint" />
            <mxPoint x="670" y="380" as="targetPoint" />
          </mxGeometry>
        </mxCell>
        <mxCell id="t1sioDimK3isIwA9q6QR-53" value="发帖、回帖、CMS" style="html=1;verticalAlign=bottom;endArrow=block;fontColor=#666666;" edge="1" parent="HeV9HryJBeppdUbYYs_r-1">
          <mxGeometry width="80" relative="1" as="geometry">
            <mxPoint x="470" y="950" as="sourcePoint" />
            <mxPoint x="670" y="950" as="targetPoint" />
          </mxGeometry>
        </mxCell>
        <mxCell id="t1sioDimK3isIwA9q6QR-55" value="文本声量分析" style="html=1;verticalAlign=bottom;endArrow=block;fontColor=#666666;" edge="1" parent="HeV9HryJBeppdUbYYs_r-1">
          <mxGeometry width="80" relative="1" as="geometry">
            <mxPoint x="680" y="970" as="sourcePoint" />
            <mxPoint x="880" y="970" as="targetPoint" />
          </mxGeometry>
        </mxCell>
        <mxCell id="t1sioDimK3isIwA9q6QR-58" value="获取声量关键词" style="html=1;verticalAlign=bottom;endArrow=block;entryX=0;entryY=0;fontColor=#666666;" edge="1" target="t1sioDimK3isIwA9q6QR-57" parent="HeV9HryJBeppdUbYYs_r-1">
          <mxGeometry relative="1" as="geometry">
            <mxPoint x="890" y="990" as="sourcePoint" />
          </mxGeometry>
        </mxCell>
        <mxCell id="t1sioDimK3isIwA9q6QR-59" value="返回声量关键词" style="html=1;verticalAlign=bottom;endArrow=open;dashed=1;endSize=8;exitX=0;exitY=0.95;fontColor=#666666;" edge="1" source="t1sioDimK3isIwA9q6QR-57" parent="HeV9HryJBeppdUbYYs_r-1">
          <mxGeometry relative="1" as="geometry">
            <mxPoint x="890" y="1028" as="targetPoint" />
          </mxGeometry>
        </mxCell>
        <mxCell id="t1sioDimK3isIwA9q6QR-61" value="声量数据管理" style="html=1;verticalAlign=bottom;endArrow=block;fontColor=#666666;" edge="1" parent="HeV9HryJBeppdUbYYs_r-1">
          <mxGeometry width="80" relative="1" as="geometry">
            <mxPoint x="890" y="1119" as="sourcePoint" />
            <mxPoint x="1300" y="1119" as="targetPoint" />
          </mxGeometry>
        </mxCell>
        <mxCell id="t1sioDimK3isIwA9q6QR-66" value="存储声量数据" style="html=1;verticalAlign=bottom;endArrow=block;fontColor=#666666;" edge="1" parent="HeV9HryJBeppdUbYYs_r-1">
          <mxGeometry width="80" relative="1" as="geometry">
            <mxPoint x="1310" y="1140" as="sourcePoint" />
            <mxPoint x="1510" y="1140" as="targetPoint" />
          </mxGeometry>
        </mxCell>
        <mxCell id="t1sioDimK3isIwA9q6QR-72" value="返回发送结果" style="html=1;verticalAlign=bottom;endArrow=open;dashed=1;endSize=8;exitX=0;exitY=0.95;fontColor=#666666;" edge="1" source="t1sioDimK3isIwA9q6QR-70" parent="HeV9HryJBeppdUbYYs_r-1">
          <mxGeometry relative="1" as="geometry">
            <mxPoint x="1310" y="1253" as="targetPoint" />
          </mxGeometry>
        </mxCell>
        <mxCell id="t1sioDimK3isIwA9q6QR-71" value="发送声量数据到服务器" style="html=1;verticalAlign=bottom;endArrow=block;entryX=0;entryY=0;fontColor=#666666;" edge="1" target="t1sioDimK3isIwA9q6QR-70" parent="HeV9HryJBeppdUbYYs_r-1">
          <mxGeometry relative="1" as="geometry">
            <mxPoint x="1310" y="1215" as="sourcePoint" />
          </mxGeometry>
        </mxCell>
        <mxCell id="t1sioDimK3isIwA9q6QR-74" value="删除声量缓存数据" style="html=1;verticalAlign=bottom;endArrow=block;fontColor=#666666;" edge="1" parent="HeV9HryJBeppdUbYYs_r-1">
          <mxGeometry width="80" relative="1" as="geometry">
            <mxPoint x="1310" y="1286" as="sourcePoint" />
            <mxPoint x="1510" y="1286" as="targetPoint" />
          </mxGeometry>
        </mxCell>
        <mxCell id="t1sioDimK3isIwA9q6QR-77" value="opt" style="shape=umlFrame;whiteSpace=wrap;html=1;strokeColor=#000000;strokeWidth=1;fontColor=#666666;" vertex="1" parent="HeV9HryJBeppdUbYYs_r-1">
          <mxGeometry x="1280" y="1179" width="470" height="150" as="geometry" />
        </mxCell>
        <mxCell id="t1sioDimK3isIwA9q6QR-82" value="进入后台或关闭APP" style="html=1;verticalAlign=bottom;endArrow=block;fontColor=#666666;" edge="1" parent="HeV9HryJBeppdUbYYs_r-1" source="t1sioDimK3isIwA9q6QR-0">
          <mxGeometry width="80" relative="1" as="geometry">
            <mxPoint x="590" y="1480" as="sourcePoint" />
            <mxPoint x="670" y="1480" as="targetPoint" />
          </mxGeometry>
        </mxCell>
        <mxCell id="t1sioDimK3isIwA9q6QR-83" value="&lt;font&gt;声量数据管理&lt;/font&gt;" style="html=1;verticalAlign=bottom;endArrow=block;fontColor=#666666;" edge="1" parent="HeV9HryJBeppdUbYYs_r-1">
          <mxGeometry width="80" relative="1" as="geometry">
            <mxPoint x="680" y="1500" as="sourcePoint" />
            <mxPoint x="1300" y="1500" as="targetPoint" />
          </mxGeometry>
        </mxCell>
        <mxCell id="t1sioDimK3isIwA9q6QR-86" value="返回发送结果" style="html=1;verticalAlign=bottom;endArrow=open;dashed=1;endSize=8;exitX=0;exitY=0.95;fontColor=#666666;" edge="1" source="t1sioDimK3isIwA9q6QR-84" parent="HeV9HryJBeppdUbYYs_r-1">
          <mxGeometry relative="1" as="geometry">
            <mxPoint x="1310" y="1548" as="targetPoint" />
          </mxGeometry>
        </mxCell>
        <mxCell id="t1sioDimK3isIwA9q6QR-85" value="发送声量数据" style="html=1;verticalAlign=bottom;endArrow=block;entryX=0;entryY=0;fontColor=#666666;" edge="1" target="t1sioDimK3isIwA9q6QR-84" parent="HeV9HryJBeppdUbYYs_r-1">
          <mxGeometry relative="1" as="geometry">
            <mxPoint x="1310" y="1520" as="sourcePoint" />
          </mxGeometry>
        </mxCell>
        <mxCell id="t1sioDimK3isIwA9q6QR-88" value="删除缓存数据" style="html=1;verticalAlign=bottom;endArrow=block;fontColor=#666666;" edge="1" parent="HeV9HryJBeppdUbYYs_r-1">
          <mxGeometry width="80" relative="1" as="geometry">
            <mxPoint x="1310" y="1575" as="sourcePoint" />
            <mxPoint x="1510" y="1575" as="targetPoint" />
          </mxGeometry>
        </mxCell>
        <mxCell id="t1sioDimK3isIwA9q6QR-90" value="opt" style="shape=umlFrame;whiteSpace=wrap;html=1;strokeColor=#000000;strokeWidth=1;fontColor=#666666;" vertex="1" parent="HeV9HryJBeppdUbYYs_r-1">
          <mxGeometry x="1290" y="1460" width="460" height="160" as="geometry" />
        </mxCell>
      </root>
    </mxGraphModel>
  </diagram>
</mxfile>
